<?xml version="1.0" encoding="UTF-8"?>
<svg width="16px" height="14px" viewBox="0 0 16 14" version="1.1" xmlns="http://www.w3.org/2000/svg" xmlns:xlink="http://www.w3.org/1999/xlink">
    <!-- Generator: Sketch 52.1 (67048) - http://www.bohemiancoding.com/sketch -->
    <title>Shape</title>
    <desc>Created with Sketch.</desc>
    <g id="Symbols" stroke="none" stroke-width="1" fill="none" fill-rule="evenodd">
        <path d="M4.84132283,10.6674331 C5.04576378,10.8982047 5.26818898,11.112378 5.50651969,11.307937 L4.86752756,12.0890394 C4.58759055,11.8590236 4.32611024,11.6074646 4.08541732,11.3366614 L4.84132283,10.6674331 Z M3.84806299,9.10825197 C3.97004724,9.39234646 4.11464567,9.66617323 4.28044094,9.92714961 L3.43029921,10.4673701 C3.23508661,10.1611339 3.06503937,9.83959055 2.92182677,9.50585827 L3.84806299,9.10825197 Z M12.5856693,0.937417323 C15.836126,2.82198425 16.9434016,6.98475591 15.0588031,10.2351811 C13.1742362,13.4856378 9.01146457,14.5929134 5.76100787,12.7083465 L6.26746457,11.8370394 C6.83458268,12.1656378 7.45335433,12.3955276 8.09741732,12.5169134 C11.2394016,13.1091654 14.2665827,11.0421417 14.8588031,7.90018898 C15.4510236,4.75823622 13.384063,1.73105512 10.2420787,1.13883465 C7.10009449,0.546614173 4.07291339,2.6135748 3.48069291,5.75555906 L5.03937008,4.19889764 L5.75193701,4.91146457 L2.8759685,7.78743307 L0,4.91146457 L0.712566929,4.19889764 L2.43855118,5.92488189 C2.89020472,2.54815748 5.76840945,0.0252283465 9.1751811,0.0197480315 C10.3729764,0.0200629921 11.5494488,0.336629921 12.5856693,0.937417323 Z M8.41927559,2.28746457 L9.42714961,2.28746457 L9.42714961,7.32683465 L11.2413228,8.68746457 L10.6365984,9.49376378 L8.41927559,7.83077165 L8.41927559,2.28746457 Z" id="Shape" fill="#000000" fill-rule="nonzero"></path>
    </g>
</svg>