<svg height="19" viewBox="0 0 10 19" width="10" xmlns="http://www.w3.org/2000/svg">
  <path d="m22.1666797 25.0208379c0 .6547233-.5608203 1.1875047-1.25 1.1875047h-5.8333203c-.6891797 0-1.25-.5327814-1.25-1.1875047v-.3958472h2.0833203c.23 0 .4166797-.1773093.4166797-.3958102 0-.2185008-.1866797-.3958472-.4166797-.3958472h-2.0833203v-1.583352h1.25c.23 0 .4166406-.1773093.4166406-.3958101 0-.2185009-.1866406-.3958473-.4166406-.3958473h-1.25v-1.5833519h2.0833203c.23 0 .4166797-.1773093.4166797-.3958102 0-.2185008-.1866797-.3958472-.4166797-.3958472h-2.0833203v-1.5833148h1.25c.23 0 .4166406-.1773464.4166406-.3958473s-.1866406-.3958473-.4166406-.3958473h-1.25v-.3958101c0-.6547233.5608203-1.1875418 1.25-1.1875418h5.8333203c.6891797 0 1.25.5328185 1.25 1.1875418zm-7.5-10.687542c0-.4361853.3741797-.7916574.8333203-.7916574h5c.4591797 0 .8333594.3554721.8333594.7916574v.0403752c-.135-.0261251-.2741797-.0403752-.4166797-.0403752h-5.8333203c-.1425 0-.2816797.0142501-.4166797.0403752zm2.2091797-2.1976629c.3475-.251751.7075-.5122227.7075-.9690038 0-.4235681-.1258594-.6784734-.2375-.9025036-.1-.2018758-.1791797-.3602221-.1791797-.68084836 0-.24618456.1175-.47418546.3225-.62540675.2083203-.15359631.4708594-.20347151.7366797-.13852985.3775.09180896.6258203.44253104.6058203.85418696-.0133203.27550108-.0866797.4203766-.1783203.6024731-.1058203.2081844-.2366797.4686561-.2366797.8906285 0 .4567811.36.7172528.7075.9690038.2291797.1662506.4733203.355435.6783594.614311h-3.6050391c.2050391-.258876.4491797-.4480604.6783594-.614311zm5.2891797 2.6021938c0-.0031543.0016406-.0055293.0016406-.0086836v-.3958473c0-.7782237-.5941406-1.4273806-1.3741797-1.5595647-.3099609-.6507526-.7966406-1.0038497-1.1624609-1.2682921-.1516797-.1092133-.3800391-.2746847-.3800391-.3395892 0-.242251.0616797-.3641929.155-.5486643.1058594-.2097801.2375-.4710311.2591797-.90721645.0383203-.79087811-.4675-1.4725429-1.2316797-1.65775652-.5149609-.1250962-1.0441406-.02297079-1.4541406.28021399-.41.3024426-.645.75844439-.645 1.25085062 0 .49715626.1433203.78694446.2583203 1.01887896.0916797.1852508.1583203.3182513.1583203.564473 0 .0641252-.2291406.2295966-.38.3396263-.3658203.2651846-.8524609.6182817-1.1624609 1.268255-.7800391.1314048-1.3741797.7805617-1.3741797 1.5587854v.3958473c0 .0031543.0016406.0055293.0016406.0086836-.5033203.3618178-.835.9302244-.835 1.5746683v8.7083428c0 1.0909457.9350391 1.9791621 2.0833594 1.9791621h5.8333203c1.1483203 0 2.0833203-.8882164 2.0833203-1.9791621v-8.7083428c0-.6444439-.3316406-1.2128505-.8349609-1.5746683z" transform="translate(-13 -8)"/>
</svg>