<?xml version="1.0" encoding="utf-8"?>
<!-- Generator: Adobe Illustrator 22.1.0, SVG Export Plug-In . SVG Version: 6.00 Build 0)  -->
<svg version="1.1" id="Calque_1" xmlns="http://www.w3.org/2000/svg" xmlns:xlink="http://www.w3.org/1999/xlink" x="0px" y="0px"
	 viewBox="0 0 21 16" style="enable-background:new 0 0 21 16;" xml:space="preserve">
<g>
	<path d="M3.9,7.2c-0.2,0-0.3,0.1-0.3,0.3c0,0.2,0.1,0.3,0.3,0.3c0.2,0,0.3-0.1,0.3-0.3C4.2,7.3,4.1,7.2,3.9,7.2z"/>
	<path d="M5.7,14c-0.2,0-0.3,0.1-0.3,0.3s0.1,0.3,0.3,0.3c0.2,0,0.3-0.1,0.3-0.3S5.9,14,5.7,14z"/>
	<ellipse cx="4.8" cy="10.3" rx="0.3" ry="0.3"/>
	<path d="M2.5,11.2c-0.2,0-0.3,0.1-0.3,0.3s0.1,0.3,0.3,0.3s0.3-0.1,0.3-0.3S2.7,11.2,2.5,11.2z"/>
	<path d="M19.1,2.1c-0.2,0-0.3,0.1-0.4,0.2L18.2,5c0,0.2,0.1,0.3,0.2,0.4c0,0,0,0,0.1,0s0.3-0.1,0.3-0.2l0.5-2.7
		C19.4,2.2,19.3,2.1,19.1,2.1z"/>
	<path d="M20.7,0.5L20.7,0.5c-0.2-0.3-0.6-0.5-1-0.5H7C6.6,0,6.3,0.2,6,0.5c-0.2,0.3-0.3,0.7-0.3,1l0.4,2.1l0,0l0.5,2.5
		c-0.2,0-0.4,0-0.6,0S5.4,6,5.1,6c-1.6,0-3,0.7-4,1.9C0.5,8.2,0.2,8.7,0.2,9.5c0,0.1,0,0.1,0,0.2C0.1,10.1,0,10.6,0,11
		c0,1.3,0.5,2.5,1.4,3.4c0.3,0.7,0.8,1.1,1.6,1.1C3.6,15.8,4.3,16,5.1,16c1.3,0,2.5-0.5,3.3-1.3c0.2,0.4,0.7,0.8,1.2,0.8h7.6
		c0.6,0,1.1-0.4,1.3-1l0.3-1.7l0,0l1.8-9.2l0,0L21,1.5C21,1.1,21,0.8,20.7,0.5z M5.9,6.9C6,6.8,6.3,6.7,6.5,6.7c0.1,0,0.3,0,0.4,0.1
		c0.9,0.2,1.2,0.5,1.3,1l0,0v0.1c0,0.8-0.4,1.2-1.2,1.4C6.6,9.4,6.3,9.3,5.9,9C5.6,8.8,5.4,8.3,5.4,8C5.4,7.5,5.5,7.1,5.9,6.9z
		 M3,14.9c-0.5,0-0.8-0.2-1-0.7l0,0c0-0.1-0.1-0.2-0.1-0.4c-0.2-0.4,0-0.6,0.1-0.8c0.2-0.2,0.6-0.3,0.9-0.3c0.5,0.1,1.4,0.3,1.3,1.2
		C4.1,14.6,3.7,14.9,3,14.9z M5.1,15.4c-0.4,0-0.7,0-1-0.1C4.4,15,4.7,14.6,4.8,14c0.1-1-0.5-1.6-1.8-1.8c-0.5-0.1-1.1,0.1-1.4,0.5
		c-0.2,0.2-0.3,0.4-0.4,0.6c-0.4-0.7-0.6-1.4-0.6-2.2c0-0.2,0-0.3,0-0.5C0.8,10.8,1,10.9,1.3,11h0.1c0.1,0,0.3-0.1,0.3-0.2
		c0-0.2-0.1-0.3-0.2-0.4C1.2,10.3,0.8,10,0.8,9.6c0-0.5,0.2-0.8,0.6-1l0,0c0.1-0.1,0.3-0.1,0.4-0.1c0.3-0.1,0.5,0,0.8,0.2
		c0.3,0,0.5,0.3,0.5,0.7s-0.2,0.5-0.4,0.7c-0.2,0.1-0.2,0.3-0.1,0.4c0.1,0.2,0.3,0.2,0.4,0.1c0.5-0.2,0.8-0.6,0.8-1.2
		C3.7,8.8,3.4,8.3,3,8C2.7,7.8,2.5,7.7,2.2,7.6C3,7,4,6.6,5.1,6.6c0.1,0,0.1,0,0.2,0C4.9,7,4.8,7.5,4.8,8c0,0.6,0.3,1.1,0.8,1.5
		C5.9,9.8,6.4,10,6.8,10c0.1,0,0.2,0,0.3,0C8,9.8,8.5,9.3,8.7,8.6c0.5,0.7,0.8,1.6,0.8,2.5C9.5,13.4,7.5,15.4,5.1,15.4z M20,3.3
		h-0.2c-0.2,0-0.3,0.1-0.3,0.3s0.1,0.3,0.3,0.3h0.1l-1.7,8.5h-5.7c-0.2,0-0.3,0.1-0.3,0.3s0.1,0.3,0.3,0.3h5.6l-0.3,1.3
		c-0.1,0.3-0.3,0.5-0.7,0.5H9.6c-0.3,0-0.6-0.2-0.7-0.5v-0.1c0.3-0.4,0.6-0.8,0.8-1.2h1.2c0.2,0,0.3-0.1,0.3-0.3s-0.1-0.3-0.3-0.3
		h-1c0.1-0.4,0.2-0.9,0.2-1.4c0-1.3-0.5-2.4-1.3-3.4C8.7,6.8,8,6.5,7.3,6.2L6.9,3.9h11c0.2,0,0.3-0.1,0.3-0.3s-0.1-0.3-0.3-0.3H6.7
		L6.4,1.4c0-0.2,0-0.4,0.1-0.5C6.6,0.7,6.8,0.6,7,0.6h12.7c0.2,0,0.4,0.1,0.5,0.2c0.1,0.2,0.2,0.4,0.1,0.5L20,3.3z"/>
	<path d="M18.3,6.1C18.2,6,18,6.1,18,6.3l-0.2,0.8c0,0.2,0.1,0.3,0.2,0.4c0,0,0,0,0.1,0s0.3-0.1,0.3-0.2l0.2-0.8
		C18.6,6.3,18.5,6.1,18.3,6.1z"/>
	<path d="M7,10.9c-0.5,0.1-1,0.4-1.2,0.7s-0.2,0.6-0.1,0.9C5.9,13.4,6.5,14,7.2,14c0.8,0,1.3-0.5,1.5-1.4c0.1-0.4,0-0.8-0.3-1.1
		C8.1,11,7.5,10.8,7,10.9z M7.2,13.3c-0.3,0-0.8-0.1-1-1c0-0.2,0-0.3,0.1-0.4c0.1-0.2,0.4-0.4,0.8-0.4c0.3-0.1,0.7,0.1,0.9,0.3
		c0.2,0.2,0.2,0.4,0.2,0.5C8.1,12.8,7.8,13.3,7.2,13.3z"/>
	<ellipse cx="8.8" cy="10.5" rx="0.3" ry="0.3"/>
</g>
</svg>
