<svg xmlns="http://www.w3.org/2000/svg" viewBox="0 0 1229 1024"><path d="M1130.496 208.998H955.904L873.984 0H354.816l-81.92 208.998H245.76v-104.55H122.88v104.448H98.304C44.032 208.998 0 253.952 0 309.35v613.683c0 55.654 44.39 100.966 98.97 100.966h1030.861c54.579 0 98.97-45.312 98.97-101.018V309.247c0-55.296-44.032-100.25-98.304-100.25zm-966.656-62.72h40.96v62.72h-40.96v-62.72zm1024 776.704c0 32.666-26.01 59.238-58.01 59.238H98.969c-32.119-.374-58.012-26.499-58.012-58.671l.003-.597v.03-613.734c0-32.256 25.702-58.47 57.344-58.47h202.24l81.92-208.998h463.872l81.92 208.998h202.24c31.642 0 57.344 26.266 57.344 58.47v613.734zM614.4 188.058c-203.264 0-368.64 168.755-368.64 376.166S411.136 940.39 614.4 940.39s368.64-168.755 368.64-376.166c0-207.36-165.376-376.166-368.64-376.166zm0 710.553c-180.685 0-327.68-150.016-327.68-334.336 0-184.371 146.995-334.387 327.68-334.387s327.68 150.016 327.68 334.336c0 184.371-146.995 334.387-327.68 334.387zm0-585.165c-135.526 0-245.76 112.538-245.76 250.778 0 138.291 110.234 250.778 245.76 250.778s245.76-112.486 245.76-250.778c0-138.24-110.234-250.778-245.76-250.778zm0 459.776c-112.947 0-204.8-93.747-204.8-208.998 0-115.2 91.853-208.896 204.8-208.896s204.8 93.696 204.8 208.947-91.853 208.998-204.8 208.998zm450.56-355.276c22.684-.288 40.961-18.744 40.961-41.469l-.001-.327v.017l.001-.31c0-22.725-18.278-41.181-40.934-41.469h-.027c-22.684.288-40.961 18.744-40.961 41.469l.001.327v-.017c0 23.04 18.381 41.779 40.96 41.779z"/></svg>