<svg xmlns="http://www.w3.org/2000/svg" viewBox="0 0 2193 1024"><path d="M36.571 651.118C16.384 651.118 0 667.795 0 688.421v149.138c0 20.553 16.384 37.303 36.571 37.303h146.286c20.187 0 36.571-16.75 36.571-37.303 0-143.945 114.834-261.047 256-261.047s256 117.102 256 261.047c0 20.553 16.384 37.303 36.571 37.303h658.286c20.187 0 36.571-16.75 36.571-37.303 0-143.945 114.834-261.047 256-261.047s256 117.102 256 261.047c0 20.553 16.384 37.303 36.571 37.303h146.286c20.187 0 36.571-16.75 36.571-37.303V688.348l.002-.368c0-20.272-16.331-36.73-36.554-36.935h-.02V539.283c0-141.897-251.465-219.941-494.446-223.525C1453.127 56.32 1125.812-43.885 689.881 17.555l-1.317.219C452.532 59.904 345.67 187.612 267.993 321.829L61.584 392.046c-14.686 5.21-25.015 18.983-25.015 35.169v.168-.009 223.744zm438.858 298.276c60.489 0 109.714-50.176 109.714-111.835S535.918 725.65 475.429 725.65s-109.714 50.249-109.714 111.909 49.225 111.909 109.714 111.909zm0-298.276c-100.791 0-182.857 83.602-182.857 186.441S374.638 1024 475.429 1024c100.864 0 182.857-83.602 182.857-186.441s-81.993-186.514-182.857-186.514zm1243.428 0c-100.864 0-182.857 83.602-182.857 186.441S1617.993 1024 1718.857 1024c100.791 0 182.857-83.602 182.857-186.441s-82.066-186.514-182.857-186.514zm0 298.276c-60.489 0-109.714-50.176-109.714-111.835s49.225-111.909 109.714-111.909 109.714 50.249 109.714 111.909-49.225 111.909-109.714 111.909zM73.143 800.256h75.191c18.213-167.57 157.989-298.277 327.095-298.277 169.179 0 308.882 130.706 327.168 298.277h589.093c18.286-167.57 157.989-298.277 327.168-298.277 169.106 0 308.882 130.706 327.095 298.277h75.191V725.65c-20.243-.206-36.573-16.663-36.573-36.935l.002-.387v.02-111.762h-36.571c-20.243-.206-36.573-16.663-36.573-36.935l.002-.387v.02c0-20.553 16.384-37.303 36.571-37.303h18.944c-49.518-54.711-200.85-111.835-421.23-111.835H298.571l-188.855 64.146v47.689h36.571c20.187 0 36.571 16.677 36.571 37.303 0 20.48-16.384 37.303-36.571 37.303h-36.571v111.835c0 20.553-16.384 37.303-36.571 37.303v74.606zM1024 77.751v237.787h540.453C1428.919 172.909 1250.158 94.135 1024 77.751zM700.562 91.355c-44.527 7.852-83.989 19.322-121.558 34.494l4.018-1.434 1.755 191.122h366.08V74.604c-4.769-.05-10.404-.079-16.045-.079-82.647 0-163.859 6.144-243.204 18.001l8.954-1.099zM358.254 315.538h153.381l-1.463-154.624c-63.488 39.717-110.811 92.16-151.918 154.551z"/></svg>