<svg xmlns="http://www.w3.org/2000/svg" viewBox="0 0 1280 1024"><path d="M1244.672 216.576L512 986.88c-21.329 22.898-51.653 37.174-85.312 37.174s-63.983-14.276-85.247-37.104l-.065-.07L35.328 665.216C13.452 641.747.024 610.154.024 575.424s13.428-66.323 35.376-89.871l-.072.079c21.346-22.863 51.665-37.114 85.312-37.114s63.966 14.251 85.249 37.046l.063.068 220.672 232.064L1073.92 37.248C1095.254 14.31 1125.604.005 1159.296.005s64.042 14.304 85.31 37.171l.066.072c21.914 23.406 35.373 54.963 35.373 89.664s-13.459 66.258-35.441 89.737l.068-.073"/></svg>