<svg xmlns="http://www.w3.org/2000/svg" viewBox="0 0 931 1024"><path d="M910.196 20.015C897.917 7.681 880.935.037 862.168 0H154.996c-37.602.079-68.063 30.54-68.143 68.135v86.676H60.601c-32.256.053-58.388 26.201-58.415 58.458v3.82c.026 32.26 26.158 58.408 58.409 58.461h26.024v173.615H60.6c-32.256.053-58.388 26.201-58.415 58.458v3.866c.053 32.24 26.174 58.362 58.409 58.415h26.024v173.615H60.599c-32.256.053-58.388 26.201-58.415 58.458v3.866c0 32.256 26.159 58.461 58.415 58.508h26.019v85.644c0 18.013 7.215 35.281 20.015 47.988a67.743 67.743 0 0 0 48.035 20.015h707.398c37.602-.079 68.063-30.54 68.143-68.135V68.051a67.743 67.743 0 0 0-20.015-48.035zM60.602 243.433c-14.53-.026-26.298-11.811-26.298-26.345v-3.91c0-14.501 11.716-26.265 26.198-26.344h81.556c14.522 0 26.298 11.776 26.298 26.298v3.863c0 14.533-11.768 26.318-26.296 26.345l-81.457.093zm0 294.446c-14.513-.026-26.272-11.785-26.298-26.296v-3.959c0-14.501 11.716-26.265 26.198-26.344h81.556c14.522 0 26.298 11.776 26.298 26.345v3.863c-.026 14.513-11.785 26.272-26.296 26.298l-81.457.093zm0 294.354c-14.513-.026-26.272-11.785-26.298-26.296v-3.959c0-14.501 11.716-26.265 26.198-26.344h81.556c14.522 0 26.298 11.823 26.298 26.345v3.863c-.026 14.513-11.785 26.272-26.296 26.298l-81.457.093zm838.377 117.76c-.131 20.451-16.688 36.992-37.133 37.097H154.825c-10.152 0-19.35-4.088-26.036-10.709l.003.003c-6.617-6.683-10.706-15.88-10.706-26.033v-.182.009-85.644h24.483c32.224-.053 58.335-26.148 58.415-58.36v-3.871c-.053-32.24-26.174-58.362-58.409-58.415h-24.814V569.901h24.483c32.24-.053 58.362-26.174 58.415-58.409v-3.868c-.026-32.26-26.158-58.408-58.409-58.461h-24.488V275.548h24.483c32.256-.053 58.388-26.201 58.415-58.458v-3.82c-.026-32.26-26.158-58.408-58.409-58.461h-24.488V68.141c.131-20.451 16.688-36.992 37.133-37.097h707.129c20.456.079 37.018 16.641 37.097 37.089v.008l-.186 881.804zM479.604 603.695c6.246-4.479 11.094-10.54 14.005-17.604l.098-.27 82.991.047c2.831 7.139 7.481 13.047 13.386 17.33l.112.078c31.762 22.594 68.808 40.383 108.7 51.281l2.451.571c7.913 2.979 11.916 14.243 12.753 42.961 0 1.257 0 2.979.279 5.073 0 4.98-.326 11.916-.838 18.06-14.268 7.303-31.184 14.177-48.727 19.623l-2.333.624c-37.472 11.874-80.568 18.715-125.262 18.715-.668 0-1.336-.002-2.004-.005h.103c-.5.002-1.091.003-1.683.003-44.708 0-87.814-6.859-128.323-19.582l3.03.821c-20-6.117-37.007-13.022-53.254-21.215l1.914.875c-.458-5.227-.719-11.309-.719-17.451 0-1.049.008-2.095.023-3.14l-.002.158v-.512l.14-2.886c.838-27.974 4.841-39.284 14.801-42.868 18.013-4.655 37.795-12.148 57.111-21.364 19.853-9.557 36.628-19.318 52.571-30.208l-1.371.884zm-53.48-64.512l20.945 30.255c-10.802 7.075-23.489 14.251-36.632 20.633l-2.093.917c-14.375 7.164-31.292 13.642-48.88 18.509l-2.041.482c-36.585 13.172-46.08 40.169-47.476 86.575l-.047.838c-.093.884-.093.884-.093 2.793-.279 12.567.745 29.789 2.793 40.169l2.048 10.426 9.169 5.26c48.919 28.207 121.344 50.688 211.503 50.688 90.531 0 162.909-22.435 211.456-50.595l9.123-5.306 2.048-10.333c1.791-10.773 2.814-23.187 2.814-35.84 0-2.553-.042-5.097-.124-7.63l.01.369c-1.396-47.151-10.938-74.1-45.475-86.668-26.305-7.201-49.235-16.671-70.635-28.561l1.608.82c-9.323-5.009-16.731-9.438-23.945-14.14l1.278.781 20.899-30.255-218.252-.186zm108.311-344.902c-69.12 0-127.535 40.588-132.515 134.33-1.35 11.171-1.629 33.885.465 54.924 4.096 39.889 15.546 74.799 38.819 101.469 23.133 26.81 55.063 40.355 93.603 40.727h.884c38.26-.372 70.051-13.871 93.463-40.774 23.273-26.764 34.723-61.719 38.726-101.516 2.234-22.342 1.722-45.149.279-55.948-5.958-90.484-61.533-131.631-131.305-133.213h-2.42zm-86.249 139.217l.093-.931c3.724-82.897 61.44-91.834 86.109-91.834h1.396c30.58.698 82.618 13.452 86.109 91.881 0 .326 0 .652.14.931.093.791 8.006 79.453-28.02 120.832-14.243 16.431-33.28 24.529-58.321 24.762h-1.164c-24.902-.233-44.079-8.332-58.228-24.762-35.933-41.146-28.207-120.18-28.113-120.879z"/></svg>