<svg xmlns="http://www.w3.org/2000/svg" viewBox="0 0 870 1024"><path d="M854.272 0H16.128C7.262.057.086 7.215 0 16.069v987.554c0 8.806 7.322 16.077 16.128 16.077h838.144c8.866-.057 16.042-7.215 16.128-16.069V16.077C870.314 7.215 863.138.058 854.277 0h-.005zm-16.128 987.494H32.256V32.256h805.888v955.29zM116.736 503.398h636.928c8.888-.029 16.093-7.197 16.179-16.069v-.008c-.058-8.884-7.244-16.07-16.123-16.128H116.685c-8.884.058-16.07 7.244-16.128 16.123v.005c0 8.806 7.322 16.077 16.128 16.077zm0 89.959h636.928c8.888-.029 16.093-7.197 16.179-16.069v-.008c-.058-8.884-7.244-16.07-16.123-16.128H116.685c-8.884.058-16.07 7.244-16.128 16.123v.005c0 8.806 7.322 16.077 16.128 16.077zm0 88.217h636.928c8.888-.029 16.093-7.197 16.179-16.069v-.008c-.058-8.884-7.244-16.07-16.123-16.128H116.685c-8.884.058-16.07 7.244-16.128 16.123v.005c0 8.806 7.322 16.077 16.128 16.077zm0 88.269h636.928c8.906-.029 16.121-7.226 16.179-16.122v-.006c-.086-8.862-7.262-16.019-16.123-16.077H116.685c-8.866.057-16.042 7.215-16.128 16.069v.008c0 8.806 7.322 16.128 16.128 16.128zM608 827.597H262.605c-8.844.086-15.991 7.233-16.077 16.069v.008c0 8.806 7.27 16.077 16.077 16.077h345.242c8.92 0 16.165-7.173 16.28-16.066v-.011c-.086-8.862-7.262-16.019-16.123-16.077h-.005zM293.581 363.469l83.814 44.851c2.168 1.2 4.753 1.907 7.504 1.907 1.861 0 3.647-.323 5.303-.917l-.11.034c4.233-1.344 7.599-4.359 9.382-8.25l.039-.095 35.686-75.776 35.686 75.776c1.869 3.966 5.214 6.978 9.309 8.364l.112.033c1.519.519 3.269.819 5.089.819 2.784 0 5.405-.701 7.694-1.936l-.086.042 83.814-44.851c5.12-2.811 8.532-8.167 8.532-14.319 0-2.616-.617-5.089-1.714-7.279l.043.094-50.278-99.84c-.205-.205-.205-.41-.41-.819 8.806-15.872 13.978-34.15 13.978-53.658 0-60.365-50.074-109.312-111.77-109.312s-111.77 49.152-111.77 109.312c0 19.302 5.171 37.786 13.978 53.658-.205.205-.205.41-.41.87l-50.278 99.84c-1.062 2.096-1.684 4.569-1.684 7.188 0 6.14 3.421 11.482 8.46 14.223l.085.042zM547.84 342.17l-55.04 29.696-35.686-75.418a111.385 111.385 0 0 0 53.76-27.443l36.966 73.216zM435.2 110.592c43.827 0 79.514 34.56 79.514 77.107 0 43.366-35.686 78.746-79.514 78.746h-.207c-43.603 0-78.988-35.188-79.307-78.716v-.03c0-42.496 35.686-77.107 79.514-77.107zm-75.674 158.413c14.848 13.517 33.331 23.142 53.76 27.443L377.6 371.814l-55.04-29.645 36.966-73.216z"/></svg>