<svg xmlns="http://www.w3.org/2000/svg" viewBox="0 0 1024 1024"><path d="M807.424 986.24L512.256 691.328 216.576 986.88c-22.942 22.958-54.645 37.159-89.664 37.159C56.905 1024.039.153 967.287.153 897.28c0-34.988 14.175-66.664 37.095-89.601L332.927 512 37.119 216.576C14.199 193.64.024 161.964.024 126.976.024 56.969 56.776.217 126.783.217c35.019 0 66.722 14.201 89.663 37.158L512.127 332.8 807.423 37.76C830.365 14.802 862.068.601 897.087.601c70.007 0 126.759 56.752 126.759 126.759 0 34.988-14.175 66.664-37.095 89.601L691.712 512l295.04 295.04c22.929 22.931 37.111 54.609 37.111 89.6s-14.182 66.669-37.111 89.6c-22.966 22.906-54.661 37.069-89.664 37.069s-66.698-14.163-89.667-37.072l.003.003z"/></svg>