<svg height="18" viewBox="0 0 21 18" width="21" xmlns="http://www.w3.org/2000/svg">
  <path d="m178.218181 15.266863h-.722203l1.064356-3.0766075c.056478-.1632488-.027604-.342254-.187852-.3998048-.160207-.0575926-.335959.0281694-.392397.1914181l-1.136461 3.285036h-.709079l1.423818-4.7574927c.098683-.3297575.319799-.59615465.622535-.75008324.302778-.15392859.644684-.1738645.962596-.05587905.317954.11790187.567288.35700739.702106.67322339.134778.3162161.13609.6651153.003692.9823762zm2.489322.363569c-.208482-.2310391-.504738-.363569-.812725-.363569h-1.008001l1.528654-3.6624807c.199213-.4771661.197244-1.001936-.005496-1.4775557-.202782-.47561973-.577829-.83526011-1.05603-1.01255175-.478243-.17729163-.992415-.14753405-1.447689.08400665-.455396.23158249-.787869.63226493-.936305 1.1282385l-1.478573 4.940343h-11.305923c-.169887 0-.307617.1403036-.307617.3134576s.13773.3134577.307617.3134577h11.532739c.00037 0 .000739.0000835.001067.0000835s.000656-.0000835.000984-.0000835h1.339202c.000697 0 .001272.0000835.001928.0000835.00041 0 .000738-.0000835.001025-.0000835h1.355937c.001804.0000417.003609 0 .005414 0h1.471026c.138387 0 .266151.0571746.359871.1610336.094541.1047784.140151.2408608.12842.3831706-.02867.3476036-.075181.6930757-.138756 1.0348699-.607031-.0829618-1.222184.1235859-1.66462.5744634-.25848.2634715-.602192.4084561-.967764.4084561s-.709325-.1450264-.967805-.4084561c-.37476-.3818332-.872936-.5921424-1.402859-.5921424-.529922 0-1.028098.2103092-1.402817.5921424-.258562.2634715-.602274.4084561-.967846.4084561-.365573 0-.709284-.1450264-.967764-.4084561-.37476-.3818332-.872936-.5921424-1.402859-.5921424-.529963 0-1.028139.2103092-1.402858.5921424-.258521.2634715-.602233.4084561-.967805.4084561-.365573 0-.709284-.1450264-.967805-.4084561-.374719-.3818332-.872895-.5921424-1.402818-.5921424-.529963 0-1.02818.2103092-1.402899.5921424-.258521.2634715-.602233.4084561-.967805.4084561-.365573 0-.709284-.1450264-.967805-.4084144-.44219-.4506684-1.056769-.6571743-1.663554-.5745887-.063492-.340415-.110988-.6855109-.139781-1.0347863-.011731-.1423098.033879-.2783922.12842-.3831706.093679-.1038172.221525-.1610336.359912-.1610336h1.507653c.169887 0 .307618-.1403037.307618-.3134577s-.137731-.3134576-.307618-.3134576h-1.50753c-.308028 0-.604243.1325299-.812766.3636108-.209344.2320005-.314549.5454581-.288627.8599606.28432 3.4494967 2.191794 6.545455 5.114528 8.3183296v1.1959453c0 .5488017.43817.9952907.976747.9952907h8.80971c.538577 0 .976706-.4465308.976706-.9952907v-1.1959035c1.694479-1.0276395 3.066576-2.5088313 3.975072-4.2939098.078176-.1537196.01936-.3428808-.131455-.4225827-.150732-.0796182-.336451-.0197269-.414709.1339509-.869163 1.7076336-2.188964 3.1198647-3.819828 4.0892429h-7.315962c-.169887 0-.307617.1403036-.307617.3134576s.13773.3134576.307617.3134576h7.091647v1.062287c0 .2031206-.162176.3683754-.361471.3683754h-8.80971c-.199336 0-.361471-.1652548-.361471-.3683754v-1.062287h.965016c.169887 0 .307617-.1403036.307617-.3134576s-.13773-.3134576-.307617-.3134576h-1.188387c-2.316523-1.3767895-3.967485-3.6303827-4.619224-6.2273165.401092-.0382836.802143.1049038 1.094134.402396.374719.381875.872895.5921006 1.402817.5921006s1.028139-.2102256 1.402858-.5921424c.258522-.263388.602233-.4084144.967805-.4084144.365573 0 .709284.1450682.967806.4084562.374719.381875.872895.5921006 1.402817.5921006s1.028098-.2102256 1.402858-.5921006c.258522-.2634298.602233-.4084562.967805-.4084562.365532 0 .709284.1450682.967806.4084144.374719.3819168.872895.5921424 1.402817.5921424s1.028098-.2102256 1.402858-.5921424c.258522-.263388.602233-.4084144.967806-.4084144.365572 0 .709283.1450682.967846.4084144.374678.3819168.872895.5921424 1.402817.5921424s1.028098-.2102256 1.402858-.5921006c.292278-.2978683.693821-.4410975 1.095405-.4023542-.066896.2672331-.144334.5314988-.2326.7919612-.055494.1636666.029778.3421285.190354.3985927.033264.0117024.067143.0172611.100406.0172611.127559 0 .246833-.0814572.29076-.2112287.283336-.8362214.46401-1.7090964.537018-2.5943843.025922-.3145443-.079283-.6279601-.288627-.8600024zm-6.835709-1.5876419c-.075838.1548898-.014109.3431734.137895.4205347.044132.0224018.090931.0330593.137115.0330593.112916 0 .221648-.0636528.275543-.1735301.331406-.6766087.211149-1.5001246-.299291-2.0490934-.221157-.2378935-.333211-.5491778-.315369-.8764276.017759-.3272497.162873-.6240314.408556-.8355944.129733-.1117581.146016-.3094872.036299-.4417245-.109594-.13219553-.303721-.14882968-.433494-.0370298-.376196.3240316-.598418.7785034-.625653 1.2796594-.027275.5011979.144375.9778625.483123 1.3422674.333212.3584283.411716.8961545.195276 1.337879zm-3.399705 0c-.07592.1548898-.014151.3431734.137853.4205347.044133.0224018.090973.0330593.137157.0330593.112916 0 .221607-.0636528.275461-.1735301.331447-.6766087.211189-1.5001246-.299209-2.0490934-.221198-.2378935-.333211-.5491778-.315411-.8764276.017801-.3272497.162874-.6240314.408516-.8355944.129733-.1117581.145975-.309529.03634-.4417245-.109635-.13219553-.303721-.14882968-.433494-.0370298-.376196.3240316-.598378.7785034-.625612 1.2797012-.027275.5011561.144334.9778207.483123 1.3422256.333129.3584283.411633.8961545.195276 1.337879zm-3.399787 0c-.075879.1549316-.014151.3432152.137853.4205347.044133.0224018.090973.0330593.137116.0330593.112916 0 .221648-.0636528.275461-.1735301.331406-.6766505.211148-1.5001246-.29925-2.0490934-.221198-.2378935-.333212-.5491778-.315452-.8764276.017801-.3272497.162873-.6240314.408516-.8355944.129733-.1117581.146016-.3094872.03634-.4417245-.109717-.13223732-.303721-.14882968-.433536-.0370298-.376195.3240316-.598418.7785034-.625652 1.2797012-.027235.5011561.144334.9778207.483123 1.3422256.333334.3584283.411879.8961545.195481 1.337879z" transform="translate(-160 -9)"/>
</svg>