<svg xmlns="http://www.w3.org/2000/svg" viewBox="0 0 804 1024"><path d="M592.603 5.669A18.886 18.886 0 0 0 579.197.11h-.017L88.392 0C39.606.073.072 38.802-.001 86.638v848.933c.073 47.799 39.607 86.565 88.393 86.601H713.8c48.823-.037 88.357-38.766 88.43-86.601V211.018L592.603 5.706zm5.303 57.27l146.139 143.177H637.104c-21.421 0-38.829-17.179-39.199-38.512V62.975zm172.617 872.595c-.11 27.429-22.784 49.664-50.798 49.81H88.392c-27.977-.146-50.651-22.345-50.798-49.774V86.637c.146-27.429 22.821-49.664 50.834-49.774h471.845v130.121c.073 41.618 34.45 75.337 76.946 75.374h133.266v693.211zM600.247 679.058H207.909c-7.888 1.236-14.064 7.301-15.453 15.028l-.017.113a17.848 17.848 0 0 0-.231 2.905c0 9.209 6.766 16.837 15.598 18.184l.102.013h392.338a18.963 18.963 0 0 0 6.181-.015l-.11.015c8.934-1.36 15.701-8.988 15.701-18.197 0-1.026-.084-2.032-.245-3.011l.015.107c-1.615-8.814-9.236-15.407-18.398-15.407-1.11 0-2.198.097-3.255.283l.112-.016zm0-371.675H207.909c-7.888 1.236-14.064 7.301-15.453 15.028l-.017.113a17.848 17.848 0 0 0-.231 2.905c0 9.209 6.766 16.837 15.598 18.184l.102.013h392.338a18.963 18.963 0 0 0 6.181-.015l-.11.015c8.934-1.36 15.701-8.988 15.701-18.197 0-1.026-.084-2.032-.245-3.011l.015.107c-1.615-8.814-9.236-15.407-18.398-15.407-1.11 0-2.198.097-3.255.283l.112-.016zm0 278.747H207.909c-7.888 1.236-14.064 7.301-15.453 15.028l-.017.113a17.848 17.848 0 0 0-.231 2.905c0 9.209 6.766 16.837 15.598 18.184l.102.013h392.338a18.963 18.963 0 0 0 6.181-.015l-.11.015c8.934-1.36 15.701-8.988 15.701-18.197 0-1.026-.084-2.032-.245-3.011l.015.107c-1.615-8.814-9.236-15.407-18.398-15.407-1.11 0-2.198.097-3.255.283l.112-.016zm0-185.819H207.909c-.912-.155-1.964-.243-3.035-.243s-2.123.088-3.147.259l.111-.015c-8.932 1.363-15.695 8.99-15.695 18.196 0 1.013.082 2.007.239 2.975l-.014-.106c1.682 10.021 11.337 16.823 21.541 15.177h392.338a18.963 18.963 0 0 0 6.181-.015l-.11.015c8.934-1.36 15.701-8.988 15.701-18.197 0-1.026-.084-2.032-.245-3.011l.015.107c-1.615-8.814-9.236-15.407-18.398-15.407-1.11 0-2.198.097-3.255.283l.112-.016zm0 92.891H207.909c-7.898 1.241-14.078 7.322-15.453 15.065l-.016.112a17.889 17.889 0 0 0-.225 2.869c0 9.207 6.763 16.833 15.593 18.183l.102.013h392.338c2.011.366 4.059.366 6.071 0 8.932-1.363 15.695-8.99 15.695-18.196 0-1.013-.082-2.007-.239-2.975l.014.106c-1.6-8.832-9.23-15.442-18.404-15.442-1.108 0-2.194.096-3.249.281l.112-.016z"/></svg>