<svg width="16px" height="16px" viewBox="0 0 16 16" xmlns="http://www.w3.org/2000/svg">
    <path d="M8.01230892,9.01949039 L9,10 L8,11 L7,10 L7.00986693,9.99006027 L6.0238234,9.01336728 L4.52545168,10.4963813 L3.49768066,9.50730658 L5.01262458,8.01175754 L3.51806641,6.53137209 L4.50714111,5.50360107 L8.0144477,9.01735162 L8.01230892,9.01949039 Z M11.0029064,8.02049527 L12.4671454,9.50372314 L11.4407783,10.4886475 L10.0000269,9.03297604 L9.03924969,10.0029514 L8.01147867,9.01387668 L11.5252292,5.5065701 L12.513798,6.49513889 L11.0029064,8.02049527 Z M1.99406028,2 L14.0059397,2 C15.1054862,2 16,2.8992496 16,4.0085302 L16,11.9914698 C16,13.0980496 15.1072288,14 14.0059397,14 L1.99406028,14 C0.894513756,14 0,13.1007504 0,11.9914698 L0,4.0085302 C0,2.90195036 0.892771196,2 1.99406028,2 Z M3.00247329,4 C2.44882258,4 2,4.45303631 2,4.99703014 L2,11.0029699 C2,11.5536144 2.45576096,12 3.00247329,12 L12.9975267,12 C13.5511774,12 14,11.5469637 14,11.0029699 L14,4.99703014 C14,4.4463856 13.544239,4 12.9975267,4 L3.00247329,4 Z" id="path-1"></path>
</svg>