<svg xmlns="http://www.w3.org/2000/svg" viewBox="0 0 1820 1024"><path d="M1788.359 467.854c-3.641-4.892-91.819-119.012-243.029-233.7C1343.374 81.009 1123.556-.001 909.767-.001s-433.493 81.01-635.563 234.155C123.107 348.842 34.929 463.075 31.288 467.854L-.001 508.586l31.289 40.846c3.641 4.779 91.819 119.012 242.916 233.586 202.069 153.372 421.774 234.155 635.563 234.155 213.902 0 433.607-80.896 635.563-234.155 151.211-114.574 239.388-228.693 243.029-233.586l31.289-40.846-31.289-40.732zM1467.051 679.14c-124.928 94.208-323.015 206.507-557.284 206.507-234.155 0-432.356-112.299-557.17-206.507-69.012-52.486-130.001-108.424-185.493-169.45l-.989-1.103c36.636-40.619 100.921-105.927 186.596-170.553 124.928-94.208 323.015-206.393 557.17-206.393 234.382 0 432.356 112.185 557.284 206.393 69.055 52.517 130.081 108.492 185.605 169.561l.991 1.106c-56.506 62.084-117.532 117.986-183.272 168.013l-3.324 2.426zM909.767 230.286c-65.918.089-126.157 24.327-172.364 64.338l.332-.281c37.381 12.062 63.948 46.547 63.948 87.237 0 .331-.002.661-.005.992v-.05c0 50.745-39.822 91.819-88.974 91.819-25.968-.085-49.26-11.469-65.229-29.491l-.08-.091c-4.551 20.48-7.168 41.87-7.168 63.829 0 153.714 120.604 278.3 269.653 278.3 148.821 0 269.426-124.587 269.426-278.3 0-153.6-120.604-278.3-269.54-278.3z"/></svg>