<svg xmlns="http://www.w3.org/2000/svg" viewBox="0 0 1024 1024"><path d="M615.616 768.384H408.32c-13.632 0-24.64-12.864-24.64-28.672s11.008-28.672 24.64-28.672L448 704V512l-39.68-7.424c-13.632 0-24.64-12.864-24.64-28.672s11.008-28.672 24.64-28.672h160.896c4.928 0 6.528-2.048 7.232-3.712-.192.96-.448 1.856-.448 4.48v256l39.616 7.04c13.632 0 24.704 12.864 24.704 28.672s-11.072 28.672-24.704 28.672zM448 256h62.72c.448 0 .832-.256 1.28-.256s.832.256 1.28.256H576v60.16c.064 1.408.768 2.56.768 3.904 0 1.408-.704 2.56-.768 3.904V384h-61.888c-.768.064-1.408.448-2.112.448-.768 0-1.408-.384-2.112-.448H448v-60.096c-.128-1.344-.832-2.432-.832-3.84 0-1.344.704-2.496.832-3.84V256zM512 0C229.23 0 0 229.23 0 512s229.23 512 512 512 512-229.23 512-512S794.77 0 512 0z"/></svg>