<svg xmlns="http://www.w3.org/2000/svg" viewBox="0 0 1316 1024"><path d="M249.71 560.055l288.914 288.914c12.258 13.047 19.789 30.66 19.789 50.032 0 40.396-32.747 73.143-73.143 73.143-19.39 0-37.018-7.545-50.108-19.859l.038.035L21.431 538.624C8.199 525.388.016 507.106.016 486.912S8.2 448.435 21.431 435.2L435.2 21.431c13.319-13.777 31.966-22.33 52.611-22.33 40.396 0 73.143 32.747 73.143 73.143 0 20.645-8.553 39.292-22.309 52.591l-.021.02L249.71 413.769h993.719c40.396 0 73.143 32.747 73.143 73.143s-32.747 73.143-73.143 73.143H249.71z"/></svg>