<svg xmlns="http://www.w3.org/2000/svg" xmlns:xlink="http://www.w3.org/1999/xlink" viewBox="0 0 16 16"><defs><path id="a" d="M7.973 14.618a.664.664 0 1 1 0 1.329h-5.98A1.996 1.996 0 0 1 0 13.954V1.993C0 .893.894 0 1.993 0h5.98a.664.664 0 1 1 0 1.329h-5.98a.665.665 0 0 0-.664.664v11.96c0 .367.298.665.664.665h5.98zM15.802 7.5a.664.664 0 0 1 0 .946l-4.04 3.987a.661.661 0 0 1-.94-.006.664.664 0 0 1 .007-.94l2.887-2.85H5.98a.664.664 0 1 1 0-1.328h7.736l-2.887-2.85a.664.664 0 1 1 .933-.945l4.04 3.986z"/></defs><use fill-rule="nonzero" xlink:href="#a"/></svg>