<?xml version="1.0" encoding="utf-8"?>
<!-- Generator: Adobe Illustrator 22.1.0, SVG Export Plug-In . SVG Version: 6.00 Build 0)  -->
<svg version="1.1" id="Calque_1" xmlns="http://www.w3.org/2000/svg" xmlns:xlink="http://www.w3.org/1999/xlink" x="0px" y="0px"
	 viewBox="0 0 26 19" style="enable-background:new 0 0 26 19;" xml:space="preserve">
<style type="text/css">
	<!-- .st0{fill:#516173;} -->
</style>
<g>
	<path class="st0" d="M12.1,3.5c0,0.6,0.3,0.9,0.6,1.2C12.9,4.8,13,4.9,13,5.2c0,0.6-0.6,0.9-0.6,0.9c-0.2,0.1-0.3,0.4-0.2,0.6
		c0.1,0.2,0.2,0.2,0.4,0.2c0.1,0,0.1,0,0.2,0c0,0,1.1-0.6,1.1-1.7c0-0.6-0.3-0.9-0.6-1.2C13.1,3.8,13,3.7,13,3.5
		c0-0.2,0.1-0.3,0.3-0.6c0.2-0.2,0.6-0.6,0.6-1.2c0-1.1-1.1-1.7-1.1-1.7c-0.2-0.1-0.5,0-0.6,0.2c-0.1,0.2,0,0.5,0.2,0.6
		c0,0,0.6,0.3,0.6,0.9c0,0.2-0.1,0.3-0.3,0.6C12.5,2.5,12.1,2.8,12.1,3.5z"/>
	<path class="st0" d="M9.5,6c0,0.6-0.6,0.9-0.6,0.9C8.7,7.1,8.6,7.3,8.7,7.5c0.1,0.2,0.2,0.2,0.4,0.2c0.1,0,0.1,0,0.2,0
		c0,0,1.1-0.6,1.1-1.7c0-0.6-0.3-0.9-0.6-1.2C9.6,4.7,9.5,4.6,9.5,4.3c0-0.6,0.6-0.9,0.6-0.9c0.2-0.1,0.3-0.4,0.2-0.6
		C10.2,2.6,10,2.5,9.8,2.6c0,0-1.1,0.6-1.1,1.7c0,0.6,0.3,0.9,0.6,1.2C9.4,5.7,9.5,5.8,9.5,6z"/>
	<path class="st0" d="M16.5,6c0,0.6-0.6,0.9-0.6,0.9c-0.2,0.1-0.3,0.4-0.2,0.6c0.1,0.2,0.2,0.2,0.4,0.2c0.1,0,0.1,0,0.2,0
		c0,0,1.1-0.6,1.1-1.7c0-0.6-0.3-0.9-0.6-1.2c-0.2-0.2-0.3-0.3-0.3-0.6c0-0.6,0.6-0.9,0.6-0.9c0.2-0.1,0.3-0.4,0.2-0.6
		c-0.1-0.2-0.4-0.3-0.6-0.2c0,0-1.1,0.6-1.1,1.7c0,0.6,0.3,0.9,0.6,1.2C16.4,5.7,16.5,5.8,16.5,6z"/>
	<path class="st0" d="M25.6,13H0.4C0.2,13,0,13.1,0,13.4c0,1.2,1,2.2,2.2,2.2h0.5C2.8,17.5,4.5,19,6.5,19h13c2,0,3.7-1.5,3.9-3.5
		h0.5c1.2,0,2.2-1,2.2-2.2C26,13.1,25.8,13,25.6,13z M23.8,14.7H23c-0.2,0-0.4,0.2-0.4,0.4c0,1.7-1.4,3-3,3h-13
		c-1.5,0-2.8-1.1-3-2.6h17.7c0.2,0,0.4-0.2,0.4-0.4s-0.2-0.4-0.4-0.4H2.2c-0.6,0-1-0.4-1.2-0.9h24.1C24.9,14.3,24.4,14.7,23.8,14.7z
		"/>
	<path class="st0" d="M6.1,10.4c0.3,0,0.6,0.2,0.7,0.4C6.9,11,7.2,11,7.4,10.9c0.3-0.2,0.7-0.1,1,0.1c0.1,0.1,0.3,0.1,0.5,0.1
		C9,11,9.1,10.9,9.1,10.7c0-0.5,0.4-0.8,0.9-0.8c0.3,0,0.6,0.1,0.7,0.4c0.2,0.2,0.6,0.2,0.7,0c0.3-0.4,1-0.5,1.4-0.1
		c0.1,0.1,0.3,0.2,0.4,0.1c0.1,0,0.3-0.1,0.3-0.3c0.1-0.3,0.5-0.6,0.8-0.6c0.5,0,0.9,0.4,0.9,0.9c0,0,0,0.1,0,0.1
		c0,0.1,0.1,0.3,0.2,0.4c0.1,0.1,0.3,0.1,0.4,0.1c0.4-0.1,0.7,0,0.9,0.2c0.1,0.1,0.3,0.2,0.4,0.1c0.1,0,0.3-0.1,0.3-0.3
		c0.1-0.3,0.5-0.6,0.8-0.6c0.4,0,0.7,0.3,0.8,0.6c0,0.1,0.1,0.2,0.2,0.3c0.1,0.1,0.2,0.1,0.4,0c0.4-0.2,0.8,0,1.1,0.3
		c0.1,0.2,0.4,0.3,0.6,0.1c0.4-0.2,0.8-0.1,1.1,0.2c0.1,0.1,0.2,0.1,0.3,0.1c0.1,0,0.2,0,0.3-0.1c0.2-0.2,0.2-0.4,0-0.6
		c-0.4-0.5-1.2-0.7-1.8-0.5c-0.4-0.4-0.9-0.6-1.5-0.5c-0.3-0.5-0.9-0.9-1.5-0.9c-0.5,0-1,0.2-1.3,0.6C16.6,10,16.3,9.9,16,9.9
		c-0.2-0.7-0.9-1.3-1.7-1.3c-0.5,0-1,0.2-1.3,0.6C12.4,9,11.6,9,11.1,9.4c-0.3-0.2-0.7-0.4-1.1-0.4c-0.7,0-1.3,0.4-1.6,1
		c-0.4-0.1-0.8-0.2-1.1,0C7,9.7,6.5,9.5,6.1,9.5c-0.2,0-0.4,0.2-0.4,0.4S5.8,10.4,6.1,10.4z"/>
	<path class="st0" d="M0.3,9.5l6.1,2.6c0.1,0,0.1,0,0.2,0c0.2,0,0.3-0.1,0.4-0.3c0.1-0.2,0-0.5-0.2-0.6L0.6,8.7
		C0.4,8.6,0.1,8.7,0,8.9C-0.1,9.1,0,9.4,0.3,9.5z"/>
</g>
</svg>
