<svg xmlns="http://www.w3.org/2000/svg" viewBox="0 0 2997 1024"><path d="M338.117 284.224c-8.657 19.409-20.314 36.373-35.002 50.919-14.673 14.546-31.799 25.932-51.363 34.142-19.579 8.21-40.643 12.301-63.223 12.301h-54.191v428.652H25.97V381.586H0V275.27h25.97V5.555h162.559c22.58 0 43.644 4.291 63.223 12.859 19.564 8.596 36.69 20.153 51.363 34.7 14.688 14.546 26.345 31.524 35.002 50.919 8.642 19.409 12.985 40.292 12.985 62.677v54.838c0 22.384-4.343 43.281-12.985 62.677zM242.72 166.709c0-14.918-5.266-27.591-15.799-38.046-10.547-10.441-23.344-15.676-38.393-15.676h-54.191v162.284h54.191c15.048 0 27.846-5.206 38.393-15.662 10.532-10.441 15.799-23.128 15.799-38.061V166.71zm281.098 631.215c-9.782 3.747-19.579 6.723-29.346 8.954-9.797 2.246-20.314 3.361-31.611 3.361-22.58 0-43.659-4.091-63.223-12.315-19.579-8.196-36.69-19.581-51.363-34.127s-26.158-31.71-34.439-51.491c-8.282-19.753-12.408-40.85-12.408-63.234 0-22.37 4.126-43.253 12.408-62.662 8.282-19.395 19.766-36.373 34.439-50.934 14.673-14.546 31.785-26.103 51.363-34.685 19.564-8.568 40.643-12.873 63.223-12.873h54.191v-53.723c0-14.918-5.281-27.591-15.813-38.046-10.547-10.441-23.33-15.676-38.378-15.676-12.047 0-22.406 3.547-31.049 10.642a358.468 358.468 0 0 0-25.393 22.942v-1.13c-3.015 5.235-6.218 9.34-9.595 12.315-3.391 2.989-6.969 6.351-10.734 10.069l-75.631-78.339c23.315-23.114 46.285-42.709 68.864-58.758 22.58-16.034 50.411-24.058 83.537-24.058 22.58 0 43.644 4.105 63.223 12.301 19.564 8.224 36.69 19.595 51.363 34.142s26.331 31.524 35.002 50.919c8.642 19.409 12.985 40.292 12.985 62.677V810.24H523.818v-12.315zm-2.251-202.562H462.86c-15.063 0-27.846 5.221-38.378 15.662-10.547 10.456-15.813 23.143-15.813 38.046 0 14.947 5.266 27.619 15.813 38.061 10.532 10.456 23.315 15.662 38.378 15.662 15.048 0 28.596-5.206 40.643-15.662 12.033-10.441 18.064-23.114 18.064-38.061v-53.708zm489.379 116.943c-8.657 19.781-20.314 36.945-35.002 51.491-14.673 14.546-31.799 25.932-51.363 34.127-19.579 8.224-40.643 12.315-63.223 12.315h-54.177v213.761H699.924V916.553h-1.125V274.154h162.559c22.58 0 43.644 4.105 63.223 12.301 19.564 8.224 36.69 19.595 51.363 34.142 14.688 14.546 26.345 31.524 35.002 50.919 8.642 19.409 12.985 40.292 12.985 62.677V649.07c0 22.385-4.343 43.482-12.985 63.234zm-95.397-278.112c0-14.918-5.266-27.591-15.799-38.046-10.547-10.441-23.344-15.676-38.393-15.676H807.18v322.322h54.177c15.048 0 27.846-5.206 38.393-15.662 10.532-10.441 15.799-23.114 15.799-38.061V434.193zm371.417 363.731c-9.797 3.747-19.579 6.723-29.361 8.954-9.782 2.246-20.314 3.361-31.611 3.361-22.58 0-43.659-4.091-63.223-12.315-19.579-8.196-36.69-19.581-51.363-34.127s-26.158-31.71-34.425-51.491c-8.296-19.753-12.422-40.85-12.422-63.234 0-22.37 4.126-43.253 12.422-62.662 8.267-19.395 19.752-36.373 34.425-50.934 14.673-14.546 31.785-26.103 51.363-34.685 19.564-8.568 40.643-12.873 63.223-12.873h54.191v-53.723c0-14.918-5.266-27.591-15.799-38.046-10.547-10.441-23.344-15.676-38.393-15.676-12.047 0-22.392 3.547-31.034 10.642a355.587 355.587 0 0 0-25.407 22.942v-1.13c-3.015 5.235-6.204 9.34-9.595 12.315-3.391 2.989-6.969 6.351-10.72 10.069l-75.645-78.339c23.315-23.114 46.285-42.709 68.864-58.758 22.58-16.034 50.411-24.058 83.537-24.058 22.58 0 43.644 4.105 63.223 12.301 19.564 8.224 36.69 19.595 51.363 34.142 14.688 14.546 26.345 31.524 35.002 50.919 8.642 19.409 12.985 40.292 12.985 62.677V810.24h-101.601v-12.315zm-2.266-202.562h-58.707c-15.063 0-27.846 5.221-38.378 15.662-10.547 10.456-15.813 23.143-15.813 38.046 0 14.947 5.266 27.619 15.813 38.061 10.532 10.456 23.315 15.662 38.378 15.662 15.048 0 28.596-5.206 40.643-15.662 12.033-10.441 18.064-23.114 18.064-38.061v-53.708zm470.581 212.681c-22.58 0-43.659-4.091-63.223-12.315-19.579-8.196-36.69-19.581-51.363-34.127s-26.36-31.71-35.002-51.492c-8.657-19.753-12.985-40.85-12.985-63.234V164.514c0-22.384 4.328-43.453 12.985-63.234 8.642-19.753 20.329-36.931 35.002-51.477s31.785-25.917 51.363-34.142c19.564-8.196 40.643-12.301 63.223-12.301 18.064 0 34.05 1.859 47.973 5.593s26.533 8.782 37.83 15.104c11.283 6.351 21.627 13.431 31.049 21.269a883.5 883.5 0 0 1 27.658 24.058v-1.116c2.987 2.989 8.267 7.652 15.799 13.989 7.517 6.351 12.783 11.013 15.799 13.989l-76.756 79.469c-1.515-1.488-4.516-4.663-9.032-9.526-4.516-4.834-7.531-7.995-9.032-9.512-9.032-11.185-19.579-21.626-31.611-31.338-12.047-9.683-28.61-14.546-49.675-14.546-15.063 0-27.846 5.235-38.378 15.676-10.561 10.456-15.813 23.128-15.813 38.046v482.361c0 14.947 5.252 27.619 15.813 38.061 10.532 10.456 23.315 15.662 38.378 15.662l54.191-1.116V377.161h-50.801V270.845h159.183v536.084l-162.573 1.116zm325.118-214.877v53.708c0 14.947 5.266 27.619 15.813 38.061 10.532 10.456 23.315 15.662 38.378 15.662h145.635v107.446H2134.59c-22.58 0-43.659-4.091-63.223-12.315-19.579-8.196-36.69-19.581-51.363-34.127s-26.36-31.71-35.002-51.492c-8.657-19.753-12.971-40.85-12.971-63.234V431.998c0-22.385 4.314-43.267 12.971-62.677 8.642-19.395 20.329-36.373 35.002-50.919s31.785-25.917 51.363-34.127c19.564-8.21 40.643-12.315 63.223-12.315s43.644 4.105 63.223 12.315c19.564 8.21 36.69 19.581 51.363 34.127s26.331 31.524 35.002 50.919c8.642 19.409 12.985 40.292 12.985 62.677v161.168h-216.764zm0-107.445h108.382v-53.723c0-14.918-5.281-27.591-15.813-38.046-10.547-10.441-23.33-15.676-38.378-15.676-15.063 0-27.846 5.235-38.378 15.676-10.547 10.456-15.813 23.128-15.813 38.046v53.723zm512.535-52.607c-1.529-1.488-4.905-5.035-10.172-10.627s-8.657-9.125-10.157-10.627a365.198 365.198 0 0 0-25.393-22.942c-8.671-7.094-19.016-10.642-31.049-10.642-15.063 0-27.86 5.235-38.393 15.676-10.547 10.456-15.799 23.128-15.799 38.046v376.045h-108.382V431.998c0-35.815 11.297-68.269 33.877-97.362 22.58-29.107 53.051-48.86 91.444-59.315h76.756c24.08 8.21 44.77 19.409 62.098 33.57 17.299 14.174 34.237 29.479 50.801 45.885l-75.631 78.339zm187.389 160.052v53.708c0 14.947 5.252 27.619 15.799 38.061 10.532 10.456 23.315 15.662 38.393 15.662h145.62v107.446h-145.62c-22.58 0-43.659-4.091-63.223-12.315-19.579-8.196-36.69-19.581-51.378-34.127-14.673-14.546-26.345-31.71-34.988-51.492-8.657-19.753-12.985-40.85-12.985-63.234V431.998c0-22.385 4.328-43.267 12.985-62.677 8.642-19.395 20.314-36.373 34.988-50.919 14.688-14.546 31.799-25.917 51.378-34.127 19.564-8.21 40.643-12.315 63.223-12.315 22.565 0 43.63 4.105 63.208 12.315 19.564 8.21 36.69 19.581 51.378 34.127 14.673 14.546 26.331 31.524 34.988 50.919 8.642 19.409 12.985 40.292 12.985 62.677v161.168h-216.75zm0-107.445h108.368v-53.723c0-14.918-5.266-27.591-15.798-38.046-10.547-10.441-23.344-15.676-38.378-15.676-15.077 0-27.86 5.235-38.393 15.676-10.547 10.456-15.799 23.128-15.799 38.046v53.723zM2123.294 0l-76.771 76.093 103.866 102.969 76.771-76.107L2123.294.001z"/></svg>