<?xml version="1.0" encoding="UTF-8"?>
<svg width="16px" height="16px" viewBox="0 0 16 16" version="1.1" xmlns="http://www.w3.org/2000/svg" xmlns:xlink="http://www.w3.org/1999/xlink">
    <!-- Generator: Sketch 52.5 (67469) - http://www.bohemiancoding.com/sketch -->
    <title>Icon/Childs</title>
    <desc>Created with Sketch.</desc>
    <g id="Icon/Childs" stroke="none" stroke-width="1" fill="none" fill-rule="evenodd">
        <path d="M4.9669065,9.50076014 C4.37917523,9.4900617 3.8993216,9.26774658 3.54790562,8.84260986 C3.20958245,8.43508846 3.02050258,7.88030306 2.94542767,7.24078653 C2.89859645,6.8418604 2.90232367,6.48618176 2.92577153,6.23368416 C2.96801573,5.26408756 3.34380264,4.63731601 3.91195664,4.29329653 C4.25795684,4.08278944 4.63585552,4 4.98770452,4 L5.00661181,4 L5.02220104,4.0000249 C5.42189893,4.00848217 5.7839724,4.11018179 6.09580477,4.30150585 C6.65668767,4.64438849 7.02814199,5.27018587 7.07001685,6.22751585 C7.09388338,6.48618176 7.0976106,6.8418604 7.05077938,7.24078653 C6.97570447,7.88030306 6.7866246,8.43508846 6.44824906,8.8426729 C6.0946603,9.2679934 5.6148173,9.4900676 5.02740982,9.50076014 L4.9669065,9.50076014 Z M3.66346316,6.28974842 L3.66194059,6.30940075 C3.584208,6.8077618 3.68243227,7.81534216 4.10408868,8.32133189 C4.31721703,8.58003952 4.60441391,8.70764433 4.98770452,8.71137285 L5.00188498,8.71137285 C5.3909173,8.70765141 5.67678897,8.58063541 5.89245931,8.3209199 C6.3153081,7.81225628 6.40641891,6.86345473 6.34273047,6.34339554 C6.32759528,6.28816092 6.32759528,6.28816092 6.32907913,6.27904318 C6.28384437,5.22190933 5.76322366,4.80936003 5.00850253,4.7914076 L4.98581379,4.7914076 C4.25456478,4.7914076 3.71218012,5.18919737 3.66535389,6.27358591 C3.66372761,6.29690806 3.6636848,6.29752203 3.66268637,6.3019294 C3.66281646,6.30151178 3.66290524,6.29989686 3.66346316,6.28974842 Z M8.90086274,12.8280595 C8.87364884,12.9036651 8.82272396,12.9688099 8.75677701,13.0147533 C8.5456585,13.1576257 8.22890048,13.3297599 7.75946311,13.509139 C6.95626553,13.816053 6.03312185,14 5.00283035,14 C3.25869844,14 1.93733374,13.5052175 1.249474,13.0151501 C1.18301051,12.9707634 1.13263802,12.9054046 1.10518568,12.8291216 C1.01983104,12.5985288 0.994710314,12.2119978 1.0008886,11.8698564 C1.0008886,11.8668259 1.0008886,11.8668259 1.00175243,11.8489718 C1.00256742,11.842005 1.00270376,11.8371971 1.00283116,11.8096504 C1.01262666,11.4659885 1.03371018,11.256195 1.10733215,11.0039853 C1.23888528,10.5533185 1.5032146,10.2229883 1.9757735,10.0569022 L1.93825,10.0634017 C1.94879504,10.0596284 1.94879504,10.0596284 1.96545955,10.0547401 C2.5923335,9.88469291 3.22937275,9.52368981 3.49594731,9.31012373 C3.66432645,9.18329531 3.89700601,9.22717062 4.01529939,9.40648351 C4.13252543,9.58417849 4.09213067,9.82877055 3.92125009,9.95736289 C3.86983039,9.99504783 3.79028542,10.050386 3.68293357,10.1191762 C3.50549955,10.2328743 3.30983445,10.3454367 3.09890637,10.4506726 C2.7914365,10.6040751 2.47674703,10.7291438 2.17062121,10.8126843 C1.86080106,10.9306135 1.76183369,11.2235998 1.74437341,11.8294501 C1.74402842,11.8486003 1.74402842,11.8486003 1.74322324,11.8626899 C1.74259215,11.874033 1.74259215,11.874033 1.74245508,11.8826124 C1.73889742,12.0536797 1.75053431,12.2799401 1.7712483,12.4266206 C2.0263546,12.5748447 2.37461275,12.7341217 2.80130921,12.8726306 C3.46451724,13.087913 4.20085604,13.212633 5.00093962,13.212633 C5.80448977,13.212633 6.54150801,13.0882794 7.20319057,12.873634 C7.62892998,12.735527 7.97580723,12.5765444 8.22864725,12.4288594 C8.24845811,12.2868487 8.25951635,12.0676491 8.25836966,11.896802 C8.25600822,11.8766157 8.25553953,11.8600891 8.25566776,11.8351369 C8.23815482,11.2256202 8.13918745,10.9326338 7.83961302,10.8180537 C7.1117854,10.6181601 6.47272654,10.2566776 6.07490143,9.95661331 C5.90785784,9.83079086 5.86746308,9.5861988 5.98468912,9.40850383 C6.1029825,9.22919094 6.33566206,9.18531562 6.50681582,9.31430008 C6.76643227,9.52235746 7.41048801,9.88673095 8.04283123,10.0593611 C8.05299933,10.0624734 8.05299933,10.0624734 8.06251062,10.0657002 C8.49793357,10.2243623 8.76253683,10.5555574 8.89369323,11.0080658 C8.96655173,11.2594381 8.98742731,11.4685726 8.99720918,11.8153079 C8.99733688,11.8229269 8.99733688,11.8229269 8.99794973,11.8340913 C8.99873669,11.8474969 8.99873669,11.8474969 8.99909991,11.8658158 L8.99909991,11.8707332 C9.00517134,12.211931 8.98140902,12.5991318 8.90086274,12.8280595 Z" id="Combined-Shape" stroke="#000000" stroke-width="0.1" fill="#000000" fill-rule="nonzero"></path>
        <path d="M10.9751799,7.40060811 C10.5343814,7.39204936 10.1744912,7.21419726 9.91092921,6.87408789 C9.65718684,6.54807077 9.51537694,6.10424245 9.45907076,5.59262923 C9.42394734,5.27348832 9.42674275,4.98894541 9.44432864,4.78694733 C9.4760118,4.01127005 9.75785198,3.50985281 10.1839675,3.23463722 C10.4434676,3.06623155 10.7268916,3 10.9907784,3 L11.0049589,3 L11.0166508,3.00001992 C11.3164242,3.00678574 11.5879793,3.08814543 11.8218536,3.24120468 C12.2425158,3.5155108 12.5211065,4.0161487 12.5525126,4.78201268 C12.5704125,4.98894541 12.573208,5.27348832 12.5380845,5.59262923 C12.4817784,6.10424245 12.3399684,6.54807077 12.0861868,6.87413832 C11.8209952,7.21439472 11.461113,7.39205408 11.0205574,7.40060811 L10.9751799,7.40060811 Z M9.99759737,4.83179874 L9.99645545,4.8475206 C9.938156,5.24620944 10.0118242,6.05227373 10.3280665,6.45706551 C10.4879128,6.66403162 10.7033104,6.76611546 10.9907784,6.76909828 L11.0014137,6.76909828 C11.293188,6.76612113 11.5075917,6.66450832 11.6693445,6.45673592 C11.9864811,6.04980502 12.0548142,5.29076378 12.0070479,4.87471644 C11.9956965,4.83052874 11.9956965,4.83052874 11.9968093,4.82323454 C11.9628833,3.97752746 11.5724177,3.64748802 11.0063769,3.63312608 L10.9893603,3.63312608 C10.4409236,3.63312608 10.0341351,3.9513579 9.99901542,4.81886873 C9.99779571,4.83752645 9.9977636,4.83801763 9.99701478,4.84154352 C9.99711234,4.84120943 9.99717893,4.83991748 9.99759737,4.83179874 Z M13.9256471,10.0624476 C13.9052366,10.122932 13.867043,10.1750479 13.8175828,10.2118026 C13.6592439,10.3261005 13.4216754,10.463808 13.0695973,10.6073112 C12.4671991,10.8528424 11.7748414,11 11.0021228,11 C9.69402383,11 8.7030003,10.604174 8.1871055,10.2121201 C8.13725788,10.1766108 8.09947851,10.1243237 8.07888926,10.0632973 C8.01487328,9.87882305 7.99603274,9.56959824 8.00066645,9.29588512 C8.00066645,9.29346075 8.00066645,9.29346075 8.00131432,9.27917741 C8.00192556,9.27360403 8.00202782,9.26975771 8.00212337,9.2477203 C8.00946999,8.97279079 8.02528263,8.80495596 8.08049911,8.60318821 C8.17916396,8.2426548 8.37741095,7.97839062 8.73183012,7.84552172 L8.7036875,7.85072139 C8.71159628,7.84770269 8.71159628,7.84770269 8.72409466,7.84379211 C9.19425012,7.70775433 9.67202957,7.41895185 9.87196048,7.24809899 C9.99824484,7.14663625 10.1727545,7.1817365 10.2614745,7.32518681 C10.3493941,7.46734279 10.319098,7.66301644 10.1909376,7.76589031 C10.1523728,7.79603826 10.0927141,7.84030884 10.0122002,7.89534092 C9.87912466,7.98629942 9.73237584,8.07634933 9.57417978,8.16053809 C9.34357738,8.28326004 9.10756027,8.38331502 8.87796591,8.45014741 C8.64560079,8.5444908 8.57137527,8.77887988 8.55828006,9.2635601 C8.55802132,9.27888021 8.55802132,9.27888021 8.55741743,9.2901519 C8.55694411,9.29922644 8.55694411,9.29922644 8.55684131,9.30608989 C8.55417306,9.44294377 8.56290073,9.62395212 8.57843623,9.7412965 C8.76976595,9.85987578 9.03095956,9.98729733 9.3509819,10.0981045 C9.84838793,10.2703304 10.400642,10.3701064 11.0007047,10.3701064 C11.6033673,10.3701064 12.156131,10.2706235 12.6523929,10.0989072 C12.9716975,9.9884216 13.2318554,9.86123549 13.4214854,9.74308751 C13.4363436,9.62947893 13.4446373,9.45411924 13.4437772,9.31744159 C13.4420062,9.30129255 13.4416547,9.28807126 13.4417508,9.26810951 C13.4286161,8.78049613 13.3543906,8.54610706 13.1297098,8.45444294 C12.5838391,8.29452808 12.1045449,8.00534205 11.8061761,7.76529065 C11.6808934,7.66463269 11.6505973,7.46895904 11.7385168,7.32680306 C11.8272369,7.18335275 12.0017465,7.1482525 12.1301119,7.25144006 C12.3248242,7.41788597 12.807866,7.70938476 13.2821234,7.84748889 C13.2897495,7.8499787 13.2897495,7.8499787 13.296883,7.85256018 C13.6234502,7.9794898 13.8219026,8.24444589 13.9202699,8.60645265 C13.9749138,8.80755047 13.9905705,8.97485804 13.9979069,9.25224634 C13.9980027,9.25834156 13.9980027,9.25834156 13.9984623,9.267273 C13.9990525,9.27799755 13.9990525,9.27799755 13.9993249,9.29265262 L13.9993249,9.29658652 C14.0038785,9.56954477 13.9860568,9.87930548 13.9256471,10.0624476 Z" id="Combined-Shape-Copy" stroke="#000000" stroke-width="0.2" fill="#000000" fill-rule="nonzero"></path>
    </g>
</svg>