<svg xmlns="http://www.w3.org/2000/svg" viewBox="0 0 853 1024"><path d="M423.04 551.765h6.656c60.843-1.067 110.08-22.912 146.432-64.683 80-92.032 66.688-249.813 65.28-264.832-5.248-113.067-57.6-167.125-100.779-192.341C508.416 11.008 470.826.853 428.8 0h-3.541c-23.04 0-68.352 3.84-111.787 29.013-43.605 25.259-96.768 79.36-101.973 193.237-1.451 15.019-14.763 172.8 65.237 264.832 36.139 41.813 85.376 63.616 146.261 64.683zM267.008 227.499c0-.597.213-1.237.213-1.664C274.048 73.814 379.818 57.472 425.088 57.472h2.517c56.107 1.28 151.467 24.576 157.867 168.363 0 .64 0 1.28.213 1.707.213 1.493 14.763 145.664-51.285 221.568-26.197 30.123-61.099 44.971-107.008 45.397h-2.091c-45.653-.427-80.811-15.275-106.752-45.397-65.877-75.477-51.755-220.288-51.541-221.568zm586.24 585.941c.256 11.008.427 67.627-9.941 95.829-2.203 5.564-5.941 10.127-10.691 13.29l-.104.065C826.283 926.72 676.907 1024 426.965 1024c-249.899 0-399.232-97.109-405.504-101.376-4.908-3.169-8.664-7.752-10.732-13.169l-.062-.186C-.341 880.853-.17 824.234.043 813.226v-.64c.213-1.707.213-3.413.213-5.291 1.28-41.813 3.968-139.947 94.123-171.563.504-.19 1.201-.409 1.911-.599l.18-.041c94.08-24.363 171.563-79.531 172.373-80.171 4.478-3.255 10.086-5.207 16.15-5.207 9.508 0 17.896 4.8 22.871 12.109l.062.096c3.197 4.596 5.107 10.295 5.107 16.44 0 9.603-4.665 18.116-11.853 23.397l-.081.057c-3.541 2.304-86.229 61.269-189.696 88.405-48.384 17.621-53.76 70.4-55.253 118.741 0 1.92-.213 3.627-.213 5.333-.427 19.072 1.024 48.555 4.352 65.493 33.877 19.541 166.613 87.168 366.507 87.168 200.661 0 332.587-67.413 366.251-86.955 3.328-16.939 4.565-46.421 4.352-65.493-.213-1.707-.213-3.413-.213-5.333-1.451-48.341-6.827-101.12-55.253-118.741-103.467-27.136-186.155-85.888-189.696-88.405-7.268-5.337-11.934-13.851-11.934-23.453a28.882 28.882 0 0 1 5.17-16.535l-.063.095c5.039-7.393 13.419-12.184 22.919-12.184a27.524 27.524 0 0 1 16.202 5.242l-.08-.056c.853.64 78.72 55.765 172.416 80.171l2.133.64c90.112 31.403 92.843 129.579 94.08 171.52 0 1.92.213 3.627.213 5.333v.64z"/></svg>