<svg width="16px" height="16px" viewBox="0 0 16 16" xmlns="http://www.w3.org/2000/svg">
    <path d="M12.1529568,10.5746362 C12.7882998,11.2066528 13.4236428,11.8386694 14.0556595,12.4740125 C14.5845576,13.006237 14.5812312,13.6582121 14.0490067,14.1970894 C13.6897551,14.5596674 13.3072187,14.9056133 12.9679256,15.2848233 C12.4722915,15.8403326 11.8535805,16.0199584 11.1417301,15.9800416 C10.1072187,15.9234927 9.15586736,15.5808732 8.23778004,15.1351351 C6.1986948,14.1438669 4.45565946,12.7700624 2.9953684,11.0336798 C1.91428732,9.74968815 1.02281123,8.34927235 0.43736424,6.77255717 C0.151293554,6.01081081 -0.051617049,5.22910603 0.0115846142,4.4008316 C0.0515014541,3.89189189 0.241106444,3.45613306 0.61699002,3.1002079 C1.02281123,2.71434511 1.40534761,2.31185031 1.80451601,1.91933472 C2.32343493,1.40706861 2.97540998,1.40706861 3.4976553,1.91600832 C3.82031642,2.23201663 4.13632474,2.55467775 4.45565946,2.87401247 C4.76501497,3.18669439 5.07437048,3.49272349 5.38372599,3.80540541 C5.92925613,4.35426195 5.92925613,4.99293139 5.38705239,5.53846154 C4.9978632,5.93097713 4.61200041,6.32349272 4.21615842,6.70602911 C4.11303992,6.80914761 4.10306071,6.89230769 4.15628316,7.01871102 C4.41906902,7.64407484 4.7949526,8.1995842 5.21740582,8.71850312 C6.06896507,9.76299376 7.03029563,10.6910603 8.17790478,11.4128898 C8.42405863,11.5659044 8.6968237,11.6790021 8.95295676,11.818711 C9.08268649,11.8918919 9.17249938,11.8686071 9.27894428,11.7588358 C9.66813347,11.3596674 10.0639755,10.9671518 10.4598175,10.5746362 C10.9787364,10.0590437 11.6307114,10.0590437 12.1529568,10.5746362 Z M11.5176137,7.92349272 C11.3679256,7.05197505 10.958778,6.26029106 10.3334141,5.63492723 C9.67145987,4.97297297 8.83320624,4.55717256 7.91179251,4.42744283 L8.08476549,3.19334719 C9.27561788,3.35966736 10.356699,3.8985447 11.2115846,4.75343035 C12.0199006,5.56507277 12.5521252,6.58627859 12.7450565,7.71392931 L11.5176137,7.92349272 Z M13.4369484,2.58794179 C14.7808154,3.93513514 15.6623123,5.63160083 15.9849734,7.5010395 L14.7575306,7.71060291 C14.4814391,6.0972973 13.7196927,4.63035343 12.558778,3.46943867 C11.3346615,2.24864865 9.78455759,1.47359667 8.07478628,1.23409563 L8.24775925,0 C10.2269692,0.276091476 12.0199006,1.17089397 13.4369484,2.58794179 Z" id="path-1"></path>
</svg>