<svg width="16px" height="16px" viewBox="0 0 16 16" xmlns="http://www.w3.org/2000/svg">
    <path d="M7.34647307,15.2431408 C7.34647307,15.2431408 2,9.31370866 2,6 C2,2.68629134 4.68629134,0 8,0 C11.3137087,0 14,2.68629134 14,6 C14,9.31370866 8.65352693,15.2431408 8.65352693,15.2431408 C8.28939247,15.6697432 7.70740603,15.6611426 7.34647307,15.2431408 Z M8,10 C10.2091391,10 12,8.20913911 12,6 C12,3.79086089 10.2091391,2 8,2 C5.79086089,2 4,3.79086089 4,6 C4,8.20913911 5.79086089,10 8,10 Z M8,8 C6.89543045,8 6,7.10456955 6,6 C6,4.89543045 6.89543045,4 8,4 C9.10456955,4 10,4.89543045 10,6 C10,7.10456955 9.10456955,8 8,8 Z" id="path-1"></path>
</svg>