<svg xmlns="http://www.w3.org/2000/svg" viewBox="0 0 1024 1024"><path d="M938.701 96H800V32c0-17.673-14.327-32-32-32s-32 14.327-32 32v64H544V32c0-17.673-14.327-32-32-32s-32 14.327-32 32v64H288V32c0-17.673-14.327-32-32-32s-32 14.327-32 32v64H85.35C38.246 96 0 134.195 0 181.299v757.35c0 47.104 38.195 85.35 85.35 85.35H938.7c47.104 0 85.299-38.195 85.299-85.35v-757.35c0-47.104-38.195-85.299-85.299-85.299zM960 938.65c0 11.776-9.574 21.35-21.299 21.35H85.351c-11.792 0-21.35-9.559-21.35-21.35V181.3c0-11.776 9.574-21.299 21.35-21.299h138.65v64c0 17.673 14.327 32 32 32s32-14.327 32-32v-64h192v64c0 17.673 14.327 32 32 32s32-14.327 32-32v-64h192v64c0 17.673 14.327 32 32 32s32-14.327 32-32v-64h138.701c11.776 0 21.299 9.574 21.299 21.299v757.35zM224 384v96h128v-96H224zm0 160v96h128v-96H224zm0 160v96h128v-96H224zm224 0v96h128v-96H448zm0-160v96h128v-96H448zm0-160v96h128v-96H448zm224 320v96h128v-96H672zm0-160v96h128v-96H672zm0-160v96h128v-96H672z"/></svg>