<svg xmlns="http://www.w3.org/2000/svg" viewBox="0 0 1024 1024"><path d="M896 320v575.808C896 966.848 838.4 1024 767.424 1024H256.448c-70.85 0-128.302-57.362-128.448-128.178V320H64c-35.52 0-64-28.672-64-64 0-35.584 28.672-64 64-64h256V64.64C320 28.288 348.416 0 383.36 0h257.28C675.136 0 704 28.928 704 64.64V192h256c35.52 0 64 28.672 64 64 0 35.584-28.672 64-64 64h-64zm-576.192 0C284.568 320 256 348.568 256 383.808v.068-.004 448.256C256 867.392 284.992 896 319.808 896h384.384c35.2 0 63.808-28.544 63.808-63.872V383.872C768 348.608 739.008 320 704.192 320H319.808zM448 128v64h128v-64H448zm160 320c17.152 0 32 14.272 32 31.872v256.256l.001.258c0 17.461-14.155 31.616-31.616 31.616-.135 0-.271-.001-.406-.003h.02c-17.571-.143-31.785-14.312-32-31.852V479.871c0-18.112 14.336-31.872 32-31.872zm-192 0c17.152 0 32 14.272 32 31.872v256.256l.001.258c0 17.461-14.155 31.616-31.616 31.616-.135 0-.271-.001-.406-.003h.02c-17.571-.143-31.785-14.312-32-31.852V479.871c0-18.112 14.336-31.872 32-31.872z"/></svg>