<svg xmlns="http://www.w3.org/2000/svg" viewBox="0 0 1390 1024"><path d="M1114.917 560.055H73.143C32.747 560.055 0 527.308 0 486.912s32.747-73.143 73.143-73.143h1041.774L826.003 124.855c-13.777-13.319-22.33-31.966-22.33-52.611 0-40.396 32.747-73.143 73.143-73.143 20.645 0 39.292 8.553 52.591 22.309l.02.021L1343.196 435.2c13.232 13.236 21.415 31.518 21.415 51.712s-8.184 38.477-21.415 51.712L929.427 952.393c-13.14 12.704-31.062 20.532-50.813 20.532-40.396 0-73.143-32.747-73.143-73.143 0-19.751 7.828-37.673 20.552-50.834l-.02.021 288.914-288.914z"/></svg>