<!-- Generated by IcoMoon.io -->
<svg version="1.1" xmlns="http://www.w3.org/2000/svg" width="1024" height="1024" viewBox="0 0 1024 1024">
<title></title>
<g id="icomoon-ignore">
</g>
<path d="M945.534 945.534c-21.905 21.849-57.366 21.849-79.271 0l-176.413-176.469c-153.612 114.845-371.426 103.977-510.976-35.63-153.164-153.108-153.164-401.397 0-554.561 153.108-153.164 401.453-153.164 554.561 0 139.607 139.551 150.475 357.364 35.63 510.976l176.469 176.469c21.849 21.849 21.849 57.31 0 79.215zM654.219 258.088c-109.411-109.411-286.72-109.411-396.131 0s-109.411 286.72 0 396.131c109.411 109.411 286.72 109.411 396.131 0s109.411-286.72 0-396.131z"></path>
</svg>
