<svg width="16px" height="16px" viewBox="0 0 16 16" xmlns="http://www.w3.org/2000/svg">
    <path d="M1,13.5857864 L2.58578644,12 L13,12 L13.9160196,12.0035326 C14.6676576,11.940186 15,11.6062792 15,11 L15,2 C15,1.30113408 14.7002803,1 14,1 L2,1 C1.29986469,1 1,1.30125102 1,2 L1,13.5857864 Z M3,13 L0,16 L0,2 C0,0.754619363 0.741942857,0 2,0 L14,0 C15.2583184,0 16,0.754619363 16,2 L16,11 C16,12.1393347 15.2582857,12.8939541 14,13 L3,13 Z M2,4 L2,5 L14,5 L14,4 L2,4 Z M2,6 L2,7 L14,7 L14,6 L2,6 Z M2,8 L2,9 L14,9 L14,8 L2,8 Z" id="path-1"></path>
</svg>