<?xml version="1.0" encoding="UTF-8"?>
<svg width="16px" height="16px" viewBox="0 0 16 16" version="1.1" xmlns="http://www.w3.org/2000/svg" xmlns:xlink="http://www.w3.org/1999/xlink">
    <!-- Generator: Sketch 52.5 (67469) - http://www.bohemiancoding.com/sketch -->
    <title>Icon/SS</title>
    <desc>Created with Sketch.</desc>
    <g id="Icon/SS" stroke="none" stroke-width="1" fill="none" fill-rule="evenodd">
        <path d="M12.964052,14.6582653 C12.6495793,14.5830228 12.2946702,14.3559168 12.1195429,14.0772046 C11.9942581,13.8822046 11.9075672,13.6615986 11.8063308,13.4379395 C11.4650944,12.6781289 11.2694096,11.8467198 11.0468641,11.5691895 C10.6557854,11.0805077 9.89622172,10.3954471 9.38373687,10.0579395 C9.2310096,9.95630313 9.08991869,9.88529556 8.96511869,9.82807586 C9.08904596,9.21599253 9.06053687,8.56303798 9.06053687,8.56303798 C9.06053687,8.43815919 9.06305808,8.43441677 9.10572475,8.38192435 C9.23857323,8.27664404 9.32633081,8.1482198 9.28579748,7.94573495 C9.28240354,7.91727283 9.17205202,7.67578798 9.13927626,7.62398495 C9.32526414,7.69834101 10.1356399,7.89353798 10.3714702,7.87679556 C10.7745732,7.84931828 11.7319551,7.17144707 11.8775066,7.07020465 C11.9854338,7.00481071 12.0454581,6.9899395 12.096852,6.97418192 C12.1541611,6.95891677 12.2937005,6.87116677 12.3251187,6.78223495 C12.3387914,6.74274253 12.2946702,6.46166677 12.199446,6.44384101 C12.1567793,6.43842435 12.049046,6.5089395 12.0102581,6.49702283 C11.9888278,6.4894395 11.9615793,6.44640162 11.9423793,6.44640162 C11.8874944,6.44640162 11.8360035,6.53178798 11.8087551,6.5732501 C11.7760763,6.62899253 11.7624035,6.72619707 11.725846,6.77376525 C11.6605854,6.85728041 10.7293854,7.12565162 10.420052,7.27259101 C10.3673005,7.29780313 10.311252,7.31937131 10.257046,7.30065919 C10.0126823,7.22512131 9.02882778,6.65095465 8.63930051,6.73387889 C8.51537323,6.75800768 8.32211263,6.82950768 8.24085202,6.73634101 C8.19566414,6.6889698 8.17035505,6.61067435 8.20817323,6.53316677 C8.24793081,6.44384101 8.45515505,6.43231828 8.49530051,6.33068192 C8.53922778,6.21811374 8.46727626,5.99435616 8.46727626,5.98165162 C8.46873081,5.93861374 8.51799142,5.91704556 8.51382172,5.87962131 C8.50868232,5.83865162 8.45893687,5.79453041 8.40075505,5.71377283 C8.34218535,5.63084859 8.32463384,5.42127283 8.27091263,5.32978041 C8.28322778,5.30131828 8.32114293,5.10986374 8.10053687,4.98203041 C7.88070657,4.85094707 7.52007626,4.82248495 7.3174096,5.00359859 C7.20191869,5.10868192 7.04909445,5.06820465 6.92778535,5.13241677 C6.69534899,5.25621222 6.84458535,5.50331071 6.46252475,5.85332586 C6.29719142,6.00489404 6.39454899,6.29965919 6.43624596,6.36485616 C6.27343384,6.67439404 6.55794293,7.03534101 6.81597929,6.97270465 C6.9014096,7.0575001 6.95464596,7.09443192 7.04754293,7.08635616 C7.04909445,7.09787889 7.05171263,7.10684101 7.05510657,7.11619707 C6.99731263,7.13737131 6.87338535,7.2011895 6.82014899,7.23053798 C6.67120354,7.30499253 6.58742172,7.4026895 6.45263384,7.53416677 C6.0214096,7.9610001 5.3782096,8.62350768 3.84793081,9.40173495 C3.67503384,9.50849253 3.17505808,9.46269707 3.17505808,9.57221222 C3.20822172,9.62588647 3.31682778,9.67975768 3.31682778,9.67975768 C3.32128839,9.74328041 3.13239142,9.76908344 3.03076717,9.79163647 C2.94320354,9.84156828 3.11231869,9.91277283 3.17757929,9.97540919 C3.51891263,10.0369622 3.69423384,9.95965162 3.98213687,9.71590162 C5.14548232,9.25587889 6.01006414,8.80865919 6.9538702,8.18603798 C7.15178535,8.05456071 7.26485202,8.19667435 7.42727626,8.80393192 C7.48797929,9.04019707 7.18068232,9.23224253 7.0626702,9.56590919 C6.92991869,9.93749253 6.94659748,10.2180759 7.04376111,10.4341516 C6.9334096,10.6752425 6.60206414,10.9962046 6.60206414,10.9962046 C6.60206414,10.9962046 5.81069445,11.6622577 5.40972475,12.0639774 C5.06257323,12.414485 4.64250051,12.332841 4.32153081,12.4896289 C3.99270657,12.6500607 3.69423384,12.9038562 3.41593081,13.135985 C3.21171263,13.3096137 3.00856111,13.4617728 2.73646414,13.5748334 C2.63299748,13.6183637 2.58111869,13.6322501 2.47086414,13.6463334 C2.33151869,13.6670153 2.24657323,13.7963259 2.25791869,13.9184471 C2.26926414,14.0289471 2.36555505,14.276144 2.47231869,14.4904471 C2.52836717,14.608235 2.65636717,14.8824168 2.82305808,14.9172804 C2.93728839,14.9408183 3.17505808,14.9904546 3.22926414,14.8853713 C3.30082778,14.744735 2.99779748,14.7058334 2.97588232,14.5247198 C2.96201566,14.4088031 2.94960354,14.217841 2.98751869,14.1062577 C3.05258535,13.9137198 3.32468232,13.782144 3.48584596,13.6939016 C3.98999142,13.4166668 5.47120354,13.0611365 5.91377323,12.9255228 C6.55522778,12.641788 7.05956717,12.4097577 7.47508232,12.1318334 C7.84085202,11.9067956 8.14029445,11.5477198 8.37234293,11.2493107 C8.91837929,11.5278259 9.72574899,11.8735077 10.2621854,12.0814092 C10.5782096,12.2039243 10.4049247,12.4084774 10.5817005,12.8674168 C10.7072763,13.2001971 10.9340884,13.4405986 11.6797854,14.3389774 C11.789652,14.4849319 11.6732884,14.5910986 11.6973369,14.7556668 C11.7231308,14.9342198 11.8087551,14.9408183 11.9729247,14.9355986 C12.1232278,14.9312653 12.2777005,14.9355986 12.4288763,14.9355986 C12.6205854,14.9355986 12.8625247,14.9355986 13.0543308,14.9342198 C13.1269611,14.933038 13.2662096,14.9093031 13.2662096,14.8050077 C13.2662096,14.6902728 13.0594702,14.6813107 12.964052,14.6582653 M3.22509445,6.24017435 C3.37956717,6.63480313 3.89825808,6.0454698 4.01258535,5.95486374 C4.24812475,5.76902283 3.9810702,5.60494707 4.09258535,5.42550768 C4.28429445,5.04821222 4.57859748,4.89516677 4.64017323,4.61251525 C4.94446414,4.8546895 5.31537323,5.04309101 5.6940399,5.01256071 C5.85064596,4.98232586 5.99251263,4.92195465 6.16928839,4.74133344 C6.34334899,4.56051525 6.39309445,3.98260616 6.4086096,3.58305313 C6.44128839,2.77124253 6.99265808,2.94644707 7.71711869,3.07999253 C7.97757929,3.12795465 8.58441566,3.30315919 8.65568839,3.3167501 C8.72841566,3.33211374 8.90519142,3.50170465 8.96094899,3.51490162 C8.99275505,3.52209101 9.00031869,3.52681828 9.02533687,3.47934859 C9.05016111,3.43168192 9.15401566,3.50682586 9.25990657,3.47481828 C9.32943384,3.45364404 9.39469445,3.26366677 9.37869445,3.24209859 C9.31081566,3.15976525 8.95784596,3.06256071 8.78688839,3.06118192 C8.58693687,2.99431071 8.12274293,2.80187131 7.77442778,2.68861374 C6.98528839,2.43501525 6.16162778,2.0492501 5.40458535,2.50799253 C5.08894899,2.3749395 5.08361566,1.95854556 4.53602778,2.00335616 C4.27663384,2.02403798 4.09161566,2.22652283 4.02625808,2.40931071 C3.96361566,2.59219707 3.93714293,2.82058344 4.05525202,3.04640919 C4.11799142,3.16961374 4.2444399,3.22880313 4.36972475,3.27381071 C4.43197929,3.29547738 4.49869445,3.30857586 4.56230657,3.33211374 C4.64996717,3.36431828 4.66771263,3.43581828 4.77040354,3.4227198 C4.8470096,3.41040919 4.90858535,3.39918192 4.98732475,3.40430313 C5.06005202,3.40804556 5.24545808,3.43581828 5.27290051,3.33802283 C5.2770702,3.33802283 5.27978535,3.33851525 5.28075505,3.33851525 C5.28734899,3.52209101 5.25428232,3.79262889 5.16002778,3.83684859 C5.03367626,3.86698495 4.97850051,3.78928041 4.67275505,3.69808344 C4.37253687,3.60846222 3.66136111,3.51795465 3.64846414,4.07321222 C3.62519142,4.95859101 3.73030657,5.24508344 3.12696111,5.99701525 C3.0220399,6.12750768 2.8460399,6.13597738 2.94960354,6.27119707 C3.03076717,6.35589404 3.16303384,6.29168192 3.22509445,6.24017435 M14.9024763,6.4692501 C14.9378702,6.21456828 14.784852,5.62050768 14.8642702,5.37567435 L15.309749,5.61085616 C15.213846,5.77237131 15.0254338,6.12770465 14.9024763,6.4692501 M15.7689975,5.25355313 C15.1682702,4.86059859 14.6498702,4.17337131 13.9767066,4.28436374 C13.6207308,4.25383344 13.9129975,3.87141677 13.8134096,3.7230001 C13.652246,3.42971222 13.632949,3.3187198 13.0006096,3.38037131 C12.8274217,3.3986895 12.6884641,3.46457586 12.6233975,3.61762131 C12.564149,3.78987131 12.6197126,3.74693192 12.5782096,3.90647738 C12.5254581,4.06799253 12.3387914,4.14185616 12.5176035,4.26269707 C12.5332157,4.31479556 12.5332157,4.40530313 12.5176035,4.56898495 C12.5093611,4.68795465 12.6519066,4.6759395 12.7118338,4.71316677 C11.9942581,5.24744707 10.7034944,5.15014404 10.0703793,4.7311895 C9.9522702,4.65269707 9.54402778,4.67229556 9.54402778,4.71858344 C9.54402778,4.82691677 9.80991869,4.85006071 9.90456111,4.96312131 C9.86014899,4.9775001 9.78441566,4.96056071 9.81757929,5.02644707 C9.85132475,5.09479556 10.3361732,5.18372738 10.3361732,5.18372738 C10.7067914,5.43890162 11.2850217,5.56141677 11.7336035,5.65034859 C12.6508399,5.78931071 12.9086823,5.73908344 13.0305732,6.33452283 C13.1518823,6.93774253 13.0094338,7.49437889 12.8741611,8.3185001 C12.7638096,9.05250768 12.9149854,9.51085616 13.0305732,10.2312728 C13.0509369,10.3648183 13.1213369,10.5866062 13.0543308,10.6411668 C12.9274944,10.7559016 12.5933369,10.8539925 12.4492399,10.9817274 C12.3853369,11.1928789 12.9667672,11.0585456 13.3553247,11.0790304 C13.5403429,11.0937046 13.5843672,10.8927956 13.5843672,10.7711668 C13.6191793,9.64459859 13.652246,9.2935001 13.8292157,8.58687131 C13.9326823,9.19570465 13.9468399,10.2202425 14.0782338,10.8370531 C13.9264763,11.0185607 13.5218217,11.1810607 13.623349,11.2811213 C13.7400035,11.3946743 13.9403429,11.3741895 14.0454581,11.3489774 C14.2937005,11.2862425 14.4358581,11.2092274 14.6130217,11.0432804 C14.6130217,11.0432804 14.9814096,8.57150768 14.9166338,7.34862131 C14.8804641,6.66730313 15.5384035,6.27454556 15.8699429,5.66640162 C15.952852,5.50941677 15.9502338,5.37301525 15.7689975,5.25355313 M2.16608839,9.4014395 C2.12885202,9.21195465 2.05893687,8.68535616 2.32938535,8.53999253 C2.91382172,8.25379556 3.23207626,8.17057586 3.81835505,7.98266677 C3.81835505,7.98266677 4.14650051,7.88319707 4.2604399,7.83966677 C4.41229445,7.78274253 4.48114293,7.62231071 4.48114293,7.47064404 C4.50916717,7.22275768 4.26577323,7.48807586 4.22679142,7.45705313 C4.08744596,7.35285616 3.96972475,7.62231071 3.82116717,7.65264404 C3.27309445,7.80224253 2.25413687,8.02048495 1.84793081,7.49437889 C2.07745808,7.23122738 2.20235505,6.7065001 2.03973687,6.33865919 C1.8028399,6.16000768 1.6226702,6.1234698 1.32836717,6.16345465 C1.09350657,6.1962501 0.950573234,6.40828798 0.922161112,6.59294707 C0.864076264,6.96029556 1.1510096,7.15805313 1.1510096,7.3890001 C0.928173234,7.86960616 -0.0489904028,7.86960616 0.00191868813,8.40644707 C0.00860959722,8.6305001 0.432076264,8.82156071 0.609627779,8.91216677 C0.770306567,9.01084859 0.607009597,9.24041677 0.604003537,9.43610616 C0.597797476,9.69453041 0.671397476,9.85515919 0.729288385,9.9760001 C0.885312628,10.3118334 0.4044399,10.0539016 0.3532399,10.288591 C0.3180399,10.4471516 0.2828399,10.7674243 0.372924749,10.9558259 C0.409773234,11.0246668 0.567155052,11.0322501 0.604003537,10.9927577 C0.64133687,10.9558259 0.636197476,10.8027804 0.673918688,10.779144 C0.770306567,10.7235001 0.933118688,10.8563562 1.0486096,10.805341 C1.28521566,10.6912956 1.29908232,10.3855001 1.41680354,10.2745077 C1.63149445,10.5998031 1.1340399,11.3236668 1.13656111,11.3843334 C1.08216111,11.5427956 1.52104596,12.0016365 1.52104596,12.0016365 C1.57699748,12.0541289 1.64371263,12.0399471 1.73777323,11.9616516 C1.87905808,11.839038 1.63391869,11.6569395 1.63391869,11.5068486 C1.64138535,11.1606743 2.09452475,10.9021516 2.2252399,10.6240304 C2.3842702,10.2813031 2.20235505,9.59289404 2.16608839,9.4014395" id="Fill-1" fill="#000000"></path>
    </g>
</svg>