<svg xmlns="http://www.w3.org/2000/svg" viewBox="0 0 983 1024"><path d="M654.991 0C506.675 0 385.843 121.201 385.843 270.049s120.832 270.254 269.148 270.254c148.398 0 269.189-121.242 269.189-270.049C924.18 121.405 803.348 0 654.95 0zm.205 498.975c-125.911 0-228.188-102.4-228.188-228.721v-.205c.205-126.157 102.072-228.557 227.983-228.762 125.952 0 228.229 102.4 228.229 228.762 0 126.321-102.072 228.966-228.024 228.966zm60.334-137.052h-.205c-10.489 4.198-22.647 6.633-35.374 6.633-27.141 0-51.696-11.073-69.394-28.948l-.008-.008c-.41-.41-.819-1.229-1.229-1.229h86.835c10.85-.705 19.384-9.678 19.384-20.644s-8.534-19.939-19.322-20.641l-.061-.003h-110.51c-2.129-6.744-3.461-14.52-3.684-22.573l-.003-.119h125.133c10.85-.705 19.384-9.678 19.384-20.644s-8.534-19.939-19.322-20.641l-.061-.003H589.374c4.71-12.206 12.124-23.347 21.381-32.44 17.703-17.865 42.246-28.926 69.372-28.926 12.738 0 24.906 2.439 36.063 6.875l-.66-.231c10.65 4.096 22.61-1.229 26.542-12.001.824-2.157 1.302-4.652 1.302-7.258 0-8.714-5.336-16.182-12.918-19.315l-.139-.051c-14.815-5.884-31.981-9.296-49.944-9.296-38.563 0-73.453 15.725-98.608 41.111l-.01.01c-16.829 16.499-29.306 37.377-35.586 60.792l-.213.935h-21.422c-10.85.705-19.384 9.678-19.384 20.644s8.534 19.939 19.322 20.641l.061.003h16.466c.41 7.619 1.229 15.278 2.662 22.692h-19.538c-10.85.705-19.384 9.678-19.384 20.644s8.534 19.939 19.322 20.641l.061.003h34.161c6.39 10.936 14.213 21.299 23.06 30.351 25.137 25.337 59.971 41.022 98.468 41.022 18.097 0 35.385-3.466 51.236-9.771l-.937.329c7.826-3.108 13.258-10.614 13.258-19.39a20.75 20.75 0 0 0-1.346-7.377l.048.143c-3.067-7.826-10.553-13.266-19.309-13.266-2.598 0-5.084.479-7.375 1.354l.142-.048zm251.454 262.389c24.904 31.785 20.357 77.824-10.281 104.038l-.205.205-153.313 127.59c-54.957 46.307-126.546 74.446-204.707 74.446-4.931 0-9.835-.112-14.711-.334l.692.025-221.266-10.322c-5.05-.288-10.959-.452-16.905-.452-18.888 0-37.39 1.654-55.369 4.826l1.905-.278-80.855 14.868v21.299c-.07 35.208-28.604 63.728-63.811 63.775H63.98C28.736 1023.952.163 995.451.001 960.239V645.773c.116-35.134 28.624-63.57 63.774-63.57h84.378c24.699 0 47.104 14.213 57.836 36.536l76.145-36.946c58.245-28.262 108.052-39.444 166.052-37.396l145.49 5.98h3.714c38.329 0 69.901 28.926 74.078 66.139l.031.339c.296 2.519.464 5.437.464 8.394 0 36.76-26.062 67.432-60.717 74.547l-.491.084-108.831 20.644a11.51 11.51 0 0 0-8.408 6.523l-.029.072a10.908 10.908 0 0 0-1.102 4.813c0 2.196.64 4.242 1.743 5.962l-.026-.044 11.715 20.234c2.134 3.372 5.844 5.578 10.07 5.578.146 0 .292-.003.437-.008l-.021.001 105.39-3.523c36.72-1.332 70.089-14.661 96.556-36.158l-.3.236c38.912-31.539 98.796-80.077 139.96-113.746 13.016-10.677 29.837-17.15 48.171-17.15 23.872 0 45.181 10.973 59.157 28.151l.11.14c.614.819 1.229 1.638 1.638 2.703zM170.803 960.184V646.021c0-12.413-10.039-22.481-22.442-22.528H63.57c-12.389.07-22.405 10.129-22.405 22.528v314.163c0 12.411 10.076 22.528 22.405 22.528h84.787c12.407-.047 22.446-10.115 22.446-22.528zm759.358-263.372c7.378-6.319 12.024-15.645 12.024-26.056a34.1 34.1 0 0 0-7.771-21.722l.048.06a17.057 17.057 0 0 1-1.594-2.37l-.045-.087c-6.557-7.346-16.053-11.949-26.624-11.949a35.484 35.484 0 0 0-22.031 7.624l.076-.058c-41.165 33.669-101.253 82.166-140.124 113.787-32.93 26.501-74.775 43.157-120.437 44.962l-.395.012-105.349 3.523c-.514.018-1.118.028-1.725.028-19.313 0-36.209-10.345-45.45-25.796l-.134-.241-11.715-20.029c-4.577-7.677-7.283-16.929-7.283-26.814 0-25.705 18.299-47.136 42.58-51.978l.338-.056 108.79-20.644c15.878-3.322 27.632-17.205 27.632-33.833 0-1.4-.083-2.78-.245-4.137l.016.164c-2.173-16.714-16.235-29.516-33.323-29.696h-4.361l-146.514-6.021c-50.79-1.843-94.618 8.069-146.514 33.26l-88.064 42.721v235.356l73.851-13.599c.205-.246.41-.246.614-.246 28.631-4.096 47.555-5.98 78.643-4.506l221.184 10.322c3.536.16 7.682.252 11.85.252 68.293 0 130.858-24.521 179.373-65.238l-.431.352 153.108-127.386z"/></svg>